<?xml version="1.0" encoding="utf-8"?>
<!-- Generator: Adobe Illustrator 24.1.1, SVG Export Plug-In . SVG Version: 6.00 Build 0)  -->
<svg version="1.1" id="Layer_1" xmlns="http://www.w3.org/2000/svg" xmlns:xlink="http://www.w3.org/1999/xlink" x="0px" y="0px"
	 viewBox="0 0 451.4 451.4" style="enable-background:new 0 0 451.4 451.4;" xml:space="preserve">
<g id="Layer_2_1_">
	<g id="Layer_1-2">
		<g id="Layer_2-2">
			<g id="Layer_1-2-2">
				<path d="M18.5,411.7c-1.6-3.1-3.3-6.3-4.9-9.5c-1.9-3.8-4.3-7.3-6.4-11c4.1,4.2,7.6,9,11.4,13.6v6.9H18.5z"/>
				<path d="M296.4,183.1c-2.1,0-4.3-0.2-6.4-0.1c-2.4,0.1-4.7,0.5-7.1,0.5c-11.3,0-22.1-3.6-33.3-4c-2.6-0.1-5.3-0.2-7.9-0.1
					c-3.7,0.1-5.5-1.8-4.7-5.4c0.2-0.6,1-1.1,1.6-1.5c1.9-1.2,3.7-2.4,3.5-5c-0.1-1.8-0.3-3.7-0.7-5.5c-0.3-0.8-1-1.4-1.8-1.6
					c-3.2-0.2-6-1.9-7.8-4.5c-0.6-0.6-1.4-0.9-2.2-1c-2.6-0.6-5.3-1-8.2-1.5l-0.5-6.5l-2.9,3.6l-1.4-5.2c-0.5,0.5-1,0.7-1.2,1.1
					c-0.9,1.9-1.7,3.8-2.3,5.8c-0.4,2.4-2.1,4.3-4.4,5.1c-3.3,1-5.3,3.1-7.3,5.7c-1.7,2.2-3.7,4.2-3.9,7.2c0,0.4-1,0.8-1.6,1
					c-0.5,0-1-0.2-1.3-0.6c-0.9-1.7-2.8-2.6-4.7-2.3c-7.5,0.4-14.4-2.2-21.2-4.7c-1.6-0.7-3-1.6-4.3-2.8c-4.2-3.4-8.1-7.1-12.4-10.2
					c-10-7.1-21.5-8.9-33.6-8.2c-0.4,0-0.9,0-1.3,0.1c-5.6,1.3-8.9-1.8-11.6-5.8c-4-6-7.9-12.1-11.6-18.2c-2.6-4.1-4.1-8.8-4.4-13.6
					c-0.3-4.8,0.7-9.2,4.6-12.7c0.4-0.4,0.8-0.8,1.2-1.3c1.2-1.8,3.5-3.1,2.5-5.9c-1.3-3.7-3.3-6.6-7.2-7.9c-1-0.1-1.9,0.3-2.6,1
					c-2.7,4.6-5.3,9.2-7.7,14c-0.2,0.7-0.3,1.5-0.3,2.2c-0.1,0.4-0.1,1.1-0.3,1.2c-2,0.6-0.9,2-1,3.1c-0.3,1.7-0.6,3.3-0.7,5
					c0,2.5,0.1,4.9,0.4,7.4c0.1,2.5,0.4,5,1,7.4c0.9,3,2.1,6,3.7,8.7c3.5,6.3,7.3,12.4,10.9,18.6c1.3,2.2,2.6,4.3,3.7,6.5
					c0.5,1.1,0.7,2.2,0.5,3.4c-1,5.1-0.3,10.1,0.8,15.1c0.1,0.4,0.2,1,0.5,1.2c1.5,1.1,2.2,2.4,1.5,4.2c0,0.3,0.2,0.6,0.4,0.7
					c2.3,0.6,2.6,2.7,3.7,4.3c1,1.4,1.9,2.7,2.9,4.1c0.2,0.3,0.5,0.5,0.5,0.8c0.1,3,3,4.3,4.3,6.6c0.8,1.4,1.5,2.9,2.2,4.3
					c1.4,2.9,2.6,5.9,4.1,8.8c1.2,2.1,1.9,4.4,2,6.8c0,0.9,0.3,1.7,0.8,2.4c1.4,1.9,3.8,3,4.8,5.4c0.4,1,2.5,1.3,3.8,2
					c1.1,0.6,2,1.4,3.1,2.1c0.5,0.3,1.1,0.5,1.7,0.7l15.3,5.4c0.2,0.1,0.3,0.2,0.4,0.3l10.1-2.7c1.5-1.1,2.2-2.5,1.4-4.3
					c-0.4-1-3-2.1-4.5-1.9c-1.8,0.5-3.7,0.2-5.4-0.6c-1.7-0.8-3.3-1.7-4.8-2.7c-1.8-1.5-3.5-3.2-4.9-5.1c-1.2-1.5,0.4-4.1,2.3-4.2
					c2.2-0.2,4.4-0.3,6.5-0.3c0.7,0.1,1.3,0.4,1.8,0.9c1.8,2,3,2.3,5.3,0.9l5.4,3.1c0.5-2,1.6-1.8,3.1-1.2c0.9,0.3,1.9,0.4,2.8,0.3
					c4.5-0.3,9-0.5,13.5-0.9c3.7-0.3,7.3,0.3,11-1c2.3-0.8,5-0.6,7.5-1.2c5-1.3,9.9-2.7,14.8-4.3c6.7-2,13.6-3.2,20.5-3.7
					c10.4-1,20.9-1.7,31.2-3.9c5.3-1.2,10.8-1.7,16.2-2.6l2.3-0.6c2-0.9,4.4-1.3,5-4c0-0.1,0-0.1,0.1-0.1l0,0l2-2.7
					c1.3-0.6,2.8-1.1,2.7-3.1L296.4,183.1z"/>
				<path d="M374.6,175.2c0.1,0.9-0.1,1.7-0.4,2.5c-0.5,1.4,0.1,1.7,1.4,1.5c2.5-0.5,4.8-1.7,6.6-3.5c0.6-0.6,0.8-1.4,0.8-2.2
					c0.4-5.5,1.8-10.9,4-16c0.6-1.9,1.7-3.7,3-5.3c1.6-1.7,3.6-1.8,4.9-0.2c0.7,0.9,1,2,0.3,2.8c-3.2,3.9-2.6,8.7-3.1,13.2
					c-1,8.6-2.1,17.1-7.9,24.1c-2.3,2.4-3.1,5.8-2.2,9c0.8,3.2,0.4,6.6,0.2,10c-0.6,8.7,0,17.2,4,25.1c0.5,1.1,1.1,2.2,1.6,3.2
					c0.5,0.9,1.5,1.5,2.5,1.5c0.4,0,0.8,0.1,0.8,0.6c0,0.3-0.2,0.4-0.4,0.5c-3.3,0.9-6.4,2.4-9.9,2.5c-0.9,0-1.4,1-2.3,1.2
					c-4.9,1.4-9.9,2.8-14.8,4.3s-9.8,2.8-14.6,4.3c-1.7,0.5-2.4,0.3-2.9-1.6c-2.2-7.8-4.4-15.6-6.8-23.4c-1.4-4.7-0.5-9.1,0.7-13.6
					c1.3-5.1,4.8-8.4,8.5-11.7c0.9-0.9,1.8-1.8,2.6-2.8c1.4-1.5,1.7-3.7,1-5.6c-1.9-5-2.5-10.4-1.5-15.7c0.5-3,2-5.9,1.7-9.1
					c-0.3-2-0.4-4-0.1-6c0.1-0.8,0.1-1.7,1-2s1.3,0.4,1.9,0.9c0.9,0.9,1.7,1.9,2.3,3c0.6,1.2,2.1,1.7,3.3,1.1c0,0,0,0,0,0
					c1.8-0.7,3.5,0,5,0.9c1.3,0.8,2.8,1.2,4.3,1.3C373.5,170.3,374.6,171.4,374.6,175.2z"/>
				<path d="M78.3,451.4c-14.5-2.6-27.8-7.9-39.4-17c-20.7-16.3-32.1-37.6-33.8-64c-0.5-8.4,0.5-16.5,1.8-24.8
					c-0.8,2.3-1.4,4.5-4.1,5.2c-0.8,0.2-1.5,1.1-2.3,0.4s-0.4-1.6-0.1-2.4c1.8-6.5,3.6-13,6.6-19.1c1-2.1,1.2-4.4,2.1-6.6
					c1.2-2.7,3.2-4.8,5.6-7.2c-3.8,0.9-4.6,0.2-4.5-2.8c0.1-2.3,0.1-4.6,0.2-7s1.6-3.3,3.4-2.2c5.6,3.4,9.2,1.3,13.6-2.9
					c19.7-19.2,43.7-27.5,71-25.8c17.9,1.1,34.1,7.4,48.6,18.1c1.3,1,3.4,3.7,3.5-0.9c0.1-0.4,0.4-0.8,0.8-0.9
					c5.7-1.9,6.5-7.1,8.1-11.8c0.3-0.9,0.4-2,1.3-2.4c3.2-1.3,2.3-3.3,1.4-5.6c-1.7-4.2-3.4-8.4-4.9-12.7c-0.5-1.5-1.3-2-2.8-1.6
					c-2.8,0.7-5-0.2-6.2-2.9c-0.8-1.8-1.9-1.8-3.6-1.4c-3.2,0.7-5.5,3-8.6,3.9c-1.1,0.4-2.2,0.7-3.4,0.8c-4.2,0.3-4.8-0.4-4.3-4.6
					c0.2-1.1,0.8-2.3-1.1-2.5c-0.8-0.1-2-0.1-2-1.2s1.3-1.1,2.1-1.4l1-0.3c-0.9-1.4-3.5,0.1-3.5-1.9c0-1.5,2.1-0.9,3.3-1.9
					c-4-0.4-5.2-4.2-7.9-6.2c-1.9-1.4-1.1-4.6-0.2-6.8c1-2.7,3.5-4.5,6.3-4.5c5.8-0.2,11.6,0.3,17.3,1.4c9.7,1.9,19.3,1,29,0.1
					c3.9-0.5,7.9-0.4,11.7,0.5c1.8,0.3,3.4,1.2,4.7,2.4c1.4,1.5,2.9,3.1,2.5,5.2c-0.4,2.3-2.8,1.9-4.4,2.2
					c-7.7,1.2-14.8,4.2-21.7,7.6c-2.2,1.1-3.5,3.5-6.3,4c6,5.2,6.3,12.8,9.1,19.2c1.2,2.8,3.3,5.1,4.3,8c3.6,10,6.6,20.2,10.7,30
					c1.7,3.9,2.6,4.3,6.4,2.2c37.1-21.3,74.2-42.6,111.2-63.8c2.6-1.5,2.9-4.2,0.1-7.3c-1.3-1.3-1.8-3.2-1.2-4.9
					c1-3.8-0.7-7-1.9-10.3c-2.3-6-2.2-6.2,2.6-10.5c1.4-1.3,2.7-2.8,3.8-4.4c-4.1-0.8-8.3-0.4-12.2,1.1c-0.9,0.3-2,1.8-2.7,0.5
					s0.2-2.4,1.4-3.1c0.6-0.3,1.1-0.8,1.4-1.4c-7.9,2.1-15.8,4-23.7,6.3c-2.8,0.8-4.2-0.1-5.2-2.6c-1.3-3.2-0.8-5.7,1.7-6.4
					c2.1-0.6,2-1.4,1.5-3.1c-0.9-2.9,0.2-4.7,3.2-5.4c4.2-1,8.4-1.8,12.7-2.6c1.4-0.3,2.6-0.5,3.4-1.8c2.5-4.1,6.6-5,11-4.8
					c1.3,0,2.4,0.4,3.1-1.2c1-2.1,2.8-1.9,4.2-0.8c2.8,2.3,5.8,3.4,9.4,2.4c0.8-0.2,1.7,0,2.3,0.7c3.5,4.2,7.6,4.9,12.6,2.8
					c3.1-1.3,4.7,0,4.2,3.4c-0.3,1.4,0.3,2.9,1.5,3.7c5.4,3.9,10,8.9,13.3,14.7c0.8,1.5,1.8,1.6,3.4,1.4c13.8-2.4,27.7-4.2,41.6-6.2
					c7.6-1.1,8-1.2,7.4,6.2c-1,12.7-0.3,25.5-0.5,38.2c0,4.8,0.2,9.5,0.3,14.3c0,2.1-0.6,3.6-3,4.1c-1.7,0.3-3.3,2-4.3,2.3
					c-4.8,1.3-2.4,5.4-3.9,7.9c-1.1,1.8-0.4,2.9,1.8,3.6c11.5,3.4,22.1,9.2,31.2,17c17.5,15.2,27.9,34.3,29.8,57.5
					c2.7,33.2-9.9,59.7-36.9,78.8c-16.8,11.9-35.9,16.8-56.7,14.7c-24.8-2.5-45-13.4-60.6-32.8c-8.5-10.6-14.2-23.1-16.6-36.5
					c-0.3-1.3-0.5-2.7-0.8-4h-0.7c-1,0.6-1.4,2.4-2.6,2c-1.4-0.5-0.9-2.2-1-3.4c-0.6-6.5-0.2-13.1-0.7-19.6
					c-0.7-10.8,3.9-20.2,7.6-29.7c6.3-16.2,17.4-28.7,31.7-38.5c3.3-2.3,3.3-2.5,0.1-5.1c-1.3-1.1-1.3-2.2-0.1-3.2
					c1.7-1.4,1.2-2.9,0.3-4.2c-1.2-1.8-2.5-0.2-3.5,0.4c-4.3,2.4-8.4,5.2-12.1,8.4c-10,8.3-17.3,18.9-25.9,28.4
					s-16.8,19.2-25.2,28.8c-0.5,0.5-1,1-1.6,1.5c-0.5-1.5,0.9-1.9,1.2-3.5l-22.6,25.2l0.7,0.6l9.5-10.5c-0.1,2.5-2.1,3.6-3.3,5.3
					c-0.8,1.1-1.7,2.2-2.7,3.1c-2.3,2.1-2.6,4.1-1.3,7.1c4.3,9.6,1.8,20.9-6.3,27.6c-1.8,1.5-2.3,2.9-1.5,5.1
					c1.6,4.5,3.3,8.9,5.3,13.2c0.7,1.5,1.5,2.6,3.6,2.3s2.9,0.9,2.8,2.8c-0.1,1.4,0,2.8-0.1,4.1c-0.2,2.7-1.2,4.5-4.4,3.7
					c-0.9-0.3-2,0-2.7,0.6c-1.6,1.2-3.7,1.2-5.3,0.1c-0.8-0.5-1.8-0.7-2.7-0.4c-3.4,1-4.1-1-4-3.6s-0.5-5.9,3.2-7
					c1.1-0.3,0.7-1.1,0.5-1.8c-1.5-4.2-3.2-8.3-5.3-12.2c-0.5-1-1.2-1.5-2.3-1c-1.3,0.5-2.7,0.6-4,0.1c-8-2.4-15.8,0.5-23.7,1.1
					c-3.7,0.3-7.3,1.1-10.9,1.5c-1.4,0.2-2.6,1-3.2,2.3c-7.1,12.6-17.2,23.1-29.5,30.7c-10.2,6.3-21.2,10.9-33.5,11.5
					c-1.2-0.1-2.3,0.1-3.4,0.5L78.3,451.4z M33.9,338.1c-0.9,0-1.7-0.3-2.3-0.9c-6.6-3.9-5.7-5-9.1,3.1c-1.3,3.1-0.4,4.2,2.5,5.3
					c10.9,3.9,21.8,8,32.6,12.1c2.9,1.1,5.9,1.1,8.9,1.6c-0.1-1-0.9-1.1-1.4-1.4c-7.5-4.7-15.1-9.2-22.6-14
					C39.6,342.1,36.3,340.8,33.9,338.1c1.4,0,2.4,0.9,3.5,1.5c10.1,6.2,20.1,12.4,30.1,18.6c2.2,1.3,4.1,1.7,6.6-0.3l-44.7-24
					C30.5,335.9,32.9,336.1,33.9,338.1z M421.6,321.9c1.3-1.6,1.1-3-0.4-4.4c-1.2-1.1-2.2-2.2-3.2-3.5c-1.7-2.4-3.3-2.3-5.3-0.3
					c-7.1,6.7-14,13.4-21.4,19.7c-4.7,4.1-7.4,9.3-10.1,14.7c1.1,0.2,1.5-0.5,2.1-0.9c7.6-5.1,15.2-10.3,22.8-15.5
					c1.2-0.8,2.3-1.9,3.9-2c-0.7,1.5-2.1,2-3.3,2.9c-8.5,5.9-17.1,11.7-25.6,17.5c-2.3,1.6-5.6,7.4-4.7,7.6c3,0.9,6.2,0.5,8.8-1.1
					c12.8-7.4,25.6-14.7,38.3-22.2c7.5-4.4,7.8-2.1,2.5-10.9C424.9,321.9,423.6,321.2,421.6,321.9L421.6,321.9z M305.5,256.8
					c-8,0.1-15.9,2.3-22.9,6.2c-22.9,13-45.6,26.4-68.6,39.5c-3,1.7-5.4,4.2-8.7,5.6c-5.5,2.4-11.1,4.5-16.3,7.7
					c-1.6,1-2.2,2-1.5,3.8c1.5,3.7,2.9,7.5,4.3,11.2c0.5,1.3,1.1,1.9,2.6,1.3c1.2-0.5,2.6-0.9,3.2,0.8c0.7,2,1.8,4.8,0,5.9
					c-2.8,1.6-1.6,3.1-0.9,4.9c0.9,2.5,2,4.9,2.8,7.4c1,3,2.9,4.2,6.1,4.5c3.4,0.4,7.1-0.5,10.1,2.3c1.3,1.2,2.7,0.1,3.7-1.1
					c4.2-4.6,8.4-9.2,12.5-13.9c1.3-1.5,3.6-2.5,2.7-5.2c-0.2-0.5,0.5-0.8,1-1c4.9-1.9,8.7-6,10-11.1c0.2-0.6,0.6-1.3,1.2-1.3
					c2.7,0.3,3.6-2,4.9-3.4c16.3-18.1,32.6-36.2,48.8-54.4c2-2.3,4.1-4.5,6.1-6.8c0.6-0.6,0.8-1.5,0.5-2.3
					C307,256.6,306.2,256.7,305.5,256.8L305.5,256.8z M359.2,372.4c-4.9,2.3-9.5,3.7-12.7,8c-8.5,11.3-17.4,22.3-26.1,33.4
					c-5.3,6.8-5.2,5.3,1.4,10.2c3.2,2.4,3.5,2.3,6-1c8.9-11.8,17.6-23.7,26.7-35.3C357.9,383.2,358.2,378.1,359.2,372.4L359.2,372.4
					z M89.9,343.9c-0.2-0.8-0.4-1.5-0.6-2.3c-4.2-13.1-8.3-26.3-12.6-39.4c-2.6-8-0.8-8-10.3-5c-2.5,0.8-3,2-2.3,4.4
					c5.1,15.1,10,30.2,15.1,45.2c1.1,3.3,5.6,5.7,8.7,4.9c0.3-0.1,0.9-0.6,0.8-0.8C88.5,348.6,89.8,346.6,89.9,343.9L89.9,343.9z
					 M297.4,386.1c0.6,0,1.1-0.1,1.7-0.3c14.8-3.5,29.7-7.2,44.6-10.6c4.2-1,7-3.6,10-6.2c1.4-1.3,1.1-2-0.7-2.5
					c-4.8-1.4-9.4-2.5-14.5-1c-4.8,1.5-9.9,2.2-14.8,3.2c-9.3,1.9-18.6,3.8-27.8,5.8c-1.5,0.3-3.4,0.4-3.3,2.6
					c0.2,2.6,0.8,5.2,1.7,7.7C294.8,386.1,295.9,386.2,297.4,386.1z M94.4,347c0.1,1,0.3,2.8,0.5,4.6c0.1,1.1,0.2,2.2,1.8,1.8
					c1.1-0.3,2.9,0.1,2.1-2c-0.2-0.6-0.4-1,0.5-0.8c3.4,0.5,4.8-1.9,5.9-4.5c5.5-12.8,10.8-25.6,16.3-38.4c3-6.9,3-6.9-4.1-9.7
					c-3.9-1.5-3.9-1.5-5.4,2.4c-5.6,14-11.1,28-16.7,42C94.7,343.9,94.4,345.4,94.4,347z M355.5,360.5c-3.1-3.8-4.7-8-9.1-10.3
					c-12.7-6.7-25.3-13.6-37.9-20.4c-6.7-3.6-6.5-3.5-9.9,3.4c-1.5,3-0.8,4.2,2,5.5c13.8,6.6,27.5,13.4,41.3,20
					C346.1,360.6,350.9,361.2,355.5,360.5z M372.2,373.7c0.8,4.1,1.7,7.9,4.6,11.2c9.6,10.7,18.8,21.6,28.2,32.5
					c5.8,6.8,4,6.2,10.8,0.6c2.4-2,2.1-3.5,0-5.6c-9-9.3-18-18.7-26.7-28.3C384.6,379,379.9,374.4,372.2,373.7L372.2,373.7z
					 M360.9,393.2c0.2,4.5,0.5,9,0.6,13.5c0.3,9.4,0.5,18.7,0.8,28.1c0,1.4-0.3,3.1,2,3.1c2.5,0,2.2-1.8,2.2-3.3
					c0-2.1-0.1-4.2,0-6.3c0.1-1,0-2.7,1.6-2.6c1.2,0.1,1.1,1.6,1.2,2.6v7.6c0,1,0.3,2,1.6,1.9c1.1,0,2.2-0.3,2.5-1.5
					c0.2-0.8,0.2-1.7,0.2-2.5c-0.7-13.6-1.4-27.3-2-41c-0.3-5.7-1.2-11.1-4.9-15.6c-0.4-0.5-0.6-1.6-1.4-1.5s-0.9,1-1.3,1.6
					C360.6,382.2,360.8,387.6,360.9,393.2L360.9,393.2z M74.5,347.5c-1-3.1-3.2-4.9-4.3-7.2C64.9,329,58,318.7,52.1,307.8
					c-1.1-2.1-2.3-2.3-4.2-0.8c-4.5,3.6-8.7,7.6-12.6,11.8c-2.2,2.2-1.5,3.4,0.8,4.8c6.8,4.2,13.6,8.5,20.4,12.7L74.5,347.5z
					 M438.2,372.1c0.9-2.6-0.8-3.2-3.1-3.4c-1.8-0.1-3.6-0.4-5.3-0.6c-11.3-1.2-22.6-2.4-33.9-3.5c-5.7-0.6-11.5-1.9-17,1.3
					c-1.7,1-1.7,1.5-0.3,2.6c2.3,1.9,4.9,3.2,7.8,3.8c14.3,2.3,28.5,4.7,42.7,7.2C437.6,380.7,437.5,380.8,438.2,372.1z
					 M344.3,301.3c-2.3,2-4,4.3-6.7,4.6c-2.7,0.3-2.5,1.4-1.8,3.3c4.2,10.8,9.5,21.1,13.9,31.8c2,4.8,5.5,8.2,8.6,12
					c1.3,1.6,1.9,0.8,2.1-0.7c0.4-3.4,0.9-6.8-0.4-10.2c-4.4-11.2-8.6-22.4-12.9-33.6C346.2,306.2,345.3,303.9,344.3,301.3
					L344.3,301.3z M75.7,390.8c0.1-0.9-0.4-1.1-0.9-1.1c-2.3,0.2-4-1.4-5.2-2.6c-2.1-2.2-3.1-1.3-4.7,0.4
					c-8,8.6-16.1,17.2-24.1,25.8c-2.8,3-2.9,3.2,0.3,6c6,5.2,4.9,5.6,10.2-0.7c4.4-5.1,8.9-10.1,13.1-15.3c3.1-3.8,6.6-7.3,9.9-11
					C74.8,391.9,75.3,391.4,75.7,390.8L75.7,390.8z M64.5,364.4c-13.7,1.8-27.1,3.4-40.4,5.2c-6.6,0.9-6.6,1.2-5.3,7.9
					c0.8,4.3,1.3,4.6,5.7,3.9c5.2-0.8,10.4-1.5,15.6-2.3l17.4-2.7c-3-0.7-6-1.2-9.1-1.3c-2.3-0.1-2.7-1.8-2.9-3.5
					c-0.1-1.1,0.6-1.6,1.6-1c4,2.5,8.5,1.7,12.9,2.1c1.1,0.1,2.2,0,2.3-1.5C62.5,369,63.5,367,64.5,364.4L64.5,364.4z M387,357.2
					c4.6,0.9,9.3,0.5,13.7-1.1c9.3-3.6,18.5-7.2,27.8-10.8c7.3-2.8,7.3-2.8,3.9-10c-1.6-3.3-2-3.4-5.2-1.6
					c-7.7,4.4-15.3,8.9-23,13.4L387,357.2z M377.1,344.1c3.7-2.7,7.4-5,9.6-8.9c4.7-8.5,9.4-16.9,13.9-25.5
					c4.1-7.7,4.5-6.4-3.4-10.7c-2.8-1.5-3.9-0.6-4.8,2c-1.6,4.9-3.4,9.7-5.2,14.6L377.1,344.1z M387.9,362.6c3.7,0.4,6.7,0.6,9.6,1
					c11.4,1.2,22.8,2.5,34.3,3.5c7.4,0.7,7.4,0.5,6.8-7.2c-0.2-2.8-1.3-3.8-4.3-3.6c-9,0.7-18.1,1.5-27.1,1.4
					C400.6,357.7,394.6,359.4,387.9,362.6L387.9,362.6z M386.1,373.2c3.5,3,6.7,6,11.2,7.5c9.4,3,18.8,6.4,28.2,9.6
					c8.4,2.9,8.4,2.9,10.4-5.9c0.5-1.9-0.1-2.7-2-3c-3.1-0.5-6.2-1-9.3-1.6L386.1,373.2z M366.5,342.4c4.2-14.7,8.3-28.8,11.4-43.2
					c1.4-6.6,1.5-6.5-5.4-7.2c-3.2-0.3-4.2,0.8-4.4,3.8c-0.8,8.6-1.9,17.1-3,25.7C364.1,328.4,363.7,335.2,366.5,342.4L366.5,342.4z
					 M360.9,340.9c1-3.6,2.2-7.1,1.4-10.8l-6.3-30.6c-1.7-7.8-0.6-7.5-8.8-5.6c-3.5,0.8-3.7,1.4-2.4,4.9l6.3,16.5
					C354.3,323.8,357.6,332.4,360.9,340.9L360.9,340.9z M385.3,378.3c9.8,10.3,19.6,20.6,29.5,30.8c5.1,5.3,5.1,5.2,9.6-0.7
					c1.8-2.4,1.7-3.8-0.8-5.6c-9-6.4-18-13-26.8-19.7C393.4,380.6,389.4,379,385.3,378.3L385.3,378.3z M375.6,385.2
					c0.1,3.5,1.1,6.8,2.9,9.8c5.7,9.4,11.2,18.9,16.9,28.2c4.5,7.4,2.8,7,10.6,2.5c2.5-1.4,2.3-2.8,0.6-4.7c-3.5-3.9-6.9-8-10.4-12
					L375.6,385.2z M303.5,221.1c0.8,2.4,1.4,5.1,2.9,7.4c1.2,1.9,2.6,2.4,4.8,1.5c2.7-1.1,5.5-2.1,8.4-2.8c2.8-0.7,3.7-2.4,3.8-5
					c0.1-2.4,0.3-4.8,0.8-7.2c1.2-7.4,1.1-7.5-5.9-10.1c-3.6-1.3-4-1.2-5.1,2.5c-0.7,3.3-1.7,6.5-2.8,9.6c-0.9,2.3-2.3,3.4-4.6,2.4
					C303.9,218.5,303.6,219.4,303.5,221.1z M65.9,363c-2.3-1.9-5.1-3-8-3.1c-10.9-0.7-21.8-1.3-32.8-1.9c-7-0.4-7.4,0-7.4,7.1
					c0,3.8,0.5,4.2,4.2,3.7l27.8-3.6C55.2,364.5,60.5,363.7,65.9,363z M94.1,341.6c0.5-1.2,0.9-2.1,1.3-3
					c4.8-11.9,9.6-23.9,14.3-35.8c2.7-6.9,3.9-6.6-4.4-8.4c-3.9-0.9-4.5-0.5-5.3,3.6c-1.6,8.6-3.4,17.1-4.9,25.8
					C94.2,329.5,92,335.3,94.1,341.6L94.1,341.6z M341.3,363.8c-4.2-2.4-8.2-1.8-12.1-1.6c-10.4,0.3-20.9,0.1-31.3,0.2
					c-6.4,0-6.9,0.6-6.4,6.8c0.3,4.6,0.9,5,5.3,4c7.6-1.6,15.2-3.2,22.9-4.8L341.3,363.8z M346.2,348.7c-2.7-4.7-6.3-8.8-10.6-12
					c-6.7-5.1-13.1-10.6-19.8-15.7c-6.4-4.9-5-6-10.8,1.5c-1.7,2.2-1.3,3.4,1,4.6c5.8,3,11.5,6.2,17.3,9.3
					C330.7,340.2,338.1,344.3,346.2,348.7z M36.9,414.7c0.8-0.2,1.6-0.6,2.1-1.3c1.5-1.5,2.9-3.1,4.3-4.6
					c7.3-7.8,14.6-15.5,21.9-23.3c0.9-0.9,1.5-1.7,0.6-3s-2-1.1-3-0.5c-1.1,0.6-2.2,1.3-3.2,2.1c-8,6-16,12-24,18.1
					c-6.6,5-6,3.9-1.2,10.1C35.2,413.2,35.7,414.3,36.9,414.7L36.9,414.7z M359.4,387.8c-1.4,1.7-2.4,3.7-2.7,5.9
					c-2,11.7-3.9,23.4-5.8,35.2c-1.2,7.6-2.5,8,6.8,8.7c2.6,0.2,3.1-0.6,3-2.9c-0.3-10.1-0.6-20.2-0.7-30.3
					C360.1,398.9,359.8,393.5,359.4,387.8L359.4,387.8z M344.4,376.7c-0.8-0.3-1.8-0.3-2.6,0.1c-13.1,3.2-26.3,6.3-39.3,9.5
					c-7.8,1.9-8.1,0.4-4.2,9.3c1,2.4,2.2,2.8,4.6,1.7c12.4-5.8,24.9-11.5,37.3-17.3C341.8,379.3,343.2,378.1,344.4,376.7
					L344.4,376.7z M372.9,388.3c-0.5,1-0.7,2.2-0.4,3.3c0.8,13.1,1.5,26.2,2.4,39.3c0.4,6.5,0.6,6.5,6.7,5.2c4.6-1,4.7-1,3.5-5.6
					c-3.1-12.2-6.2-24.5-9.3-36.7C375.3,391.8,374.3,389.9,372.9,388.3L372.9,388.3z M63.5,378.8c-0.5-2.3-2.1-2-3.7-1.8
					c-10.8,1.6-21.6,3.3-32.4,5c-8,1.2-8,1.1-5.2,8.9c0.9,2.6,2.3,3.1,4.8,2.2c7.2-2.6,14.5-5,21.8-7.5c4-1.4,8-2.7,11.9-4.1
					C61.8,380.9,63.2,380.5,63.5,378.8L63.5,378.8z M77.5,346c-0.5-1.6-0.8-2.6-1.1-3.6c-4-12.2-8-24.4-12.2-36.5
					c-2.6-7.7-1.2-7.6-9-3.5c-3.4,1.8-3.5,2.1-1.5,5.6c6.2,10.9,12.5,21.7,18.7,32.6C73.7,342.7,75.4,344.6,77.5,346z M345.5,379
					c-1.7,0.4-3.3,1.3-4.6,2.5c-9.3,8-18.6,15.9-27.8,23.8c-6.8,5.8-6.4,4.3-0.3,11c1.8,1.9,2.8,1.7,4.4-0.3
					c9-11.5,18.1-23,27.2-34.5C344.8,380.8,345.6,380.2,345.5,379L345.5,379z M90.4,340.8c1.2-3.5,1.5-7.2,0.9-10.9
					c-1.2-10-2.5-20-3.5-30c-0.7-7.1-0.6-7.2-7.8-6c-4.3,0.7-4.4,0.8-3,5c3.4,10.7,6.9,21.4,10.3,32.1
					C88.2,334.1,89.2,337.2,90.4,340.8L90.4,340.8z M107.1,345.3c3.2-1.6,6-4,8-7c4.5-6.9,9-13.7,13.6-20.6c1-1.5,1.6-3,1-4.7
					c-0.6-1.7,0.4-2.5,1.7-3.3c3.7-2.3,3.7-2.3-0.3-4.9c-0.7-0.5-1.4-0.9-2.1-1.4c-3.1-1.9-3.6-1.8-5,1.7
					c-3.9,9.1-7.8,18.2-11.6,27.4C110.7,336.8,108.9,341.1,107.1,345.3L107.1,345.3z M121,408.9l6.2-0.6c0.7-0.1,1.7,0.2,2-0.5
					c0.4-0.9-0.5-1.5-1-2.1c-5.1-6.4-10.4-12.7-15.4-19.3c-2.1-2.8-4.5-4.3-7.8-4.3c-1.5,0-3.6-1.2-4.3,0.3s0,3.5,1.3,5
					c0.3,0.4,0.6,0.9,0.9,1.3c4.2,5.8,8.5,11.5,12.5,17.5C117.1,408.5,118.7,409.8,121,408.9L121,408.9z M356,387.4
					c-1,1.4-1.8,2.4-2.6,3.5c-7.6,10.2-15.3,20.4-22.8,30.6c-4.1,5.6-6.1,4.9,2.4,9.2c2.3,1.2,3.7,1,4.9-1.6
					c5.6-12,11.4-23.9,17.2-35.9C355.8,391.6,356.7,389.8,356,387.4L356,387.4z M371.2,350.4c2-1.2,3.5-3,4.2-5.2
					c5.2-14.6,10.5-29.2,15.8-43.7c1.6-4.5,1.5-4.5-3.1-6.1c-2.5-0.9-3.6-0.4-4.2,2.3c-1.5,6.9-3.3,13.7-4.9,20.6
					C376.3,328.7,373.8,339.2,371.2,350.4z M126.2,386.9c7.8,3.3,15.5,6.6,23.3,9.8c8,3.2,6.5,4.5,10.2-4.3c1-2.4,0.7-3.6-2.1-4.2
					c-7.9-1.9-15.7-4-23.5-6c-4.6-1.2-4.6-1.2-6.8,3C126.9,385.8,126.6,386.4,126.2,386.9z M337,357.8c-0.9-0.5-1.8-1-2.7-1.4
					c-10.2-5-20.4-10.1-30.7-15c-7.8-3.7-6.7-5.1-9.5,4.5c-0.7,2.3,0.1,3.2,2.2,3.9C309.5,354,323.2,355.6,337,357.8z M78.4,354.3
					c-1-3.2-3-4.7-5.2-6c-12.3-7.7-24.7-15.4-37-23.2c-4.2-2.6-4.5-2.4-6.9,1.9c-0.9,1.6-0.7,2.4,0.9,3.2
					C46.2,338.1,62.1,346.1,78.4,354.3z M319.4,253.8c4.8-0.1,6-0.8,5.7-3.6c-0.8-6.9-1.7-13.8-1.9-20.7c0-1.4-0.6-1.9-2-1.4
					l-7.2,2.4c-4,1.3-4.9,3-3.4,7.1c1.7,4.7,3.6,9.4,5.3,14.2C316.3,253.3,317.9,254.2,319.4,253.8z M193,400.8
					c-2.1-1.9-3.8-3.3-5.3-4.9c-2.9-3.1-4.8-7-5.5-11.2c-0.6-2.9-2.9-1.9-4.5-2.4c-1.4-0.5-1.9,0.7-2.1,1.7
					c-1.2,6.2-3.2,12.2-5.8,18c-0.5,1.1-0.5,2,1,1.8C178.1,402.8,185.3,401.8,193,400.8L193,400.8z M115.3,345.8
					c1.8,0.1,2.7-0.7,3.7-1.2c9-4.8,17.9-9.7,26.9-14.6c7.1-3.8,7-3.7,2.1-10.1c-2-2.6-3.2-2.1-5.2-0.2
					c-5.7,5.6-11.5,11.1-17.3,16.6C122.2,339.4,118.9,342.4,115.3,345.8L115.3,345.8z M94,420.6h0.6v-2.2c0-3.8,1-5.1-4.5-4.6
					s-5.5,0.2-6.1,6.1c-0.5,5.4-0.7,10.9-1.1,16.4c-0.1,1.7,0.8,2.4,2.4,2.6c1.8,0.2,1.6-1.1,1.9-2.2c0.6-2.1,0-4.2,0.3-6.3
					c0.1-0.8,0.2-1.9,1.3-1.9s1,1.1,1,1.9c0,2-0.1,4-0.1,6c0,1.1-0.7,2.7,1.5,2.8c1.8,0.1,2.8-0.6,2.8-2.5L94,420.6L94,420.6z
					 M336.7,383.4l-0.3-0.5l-32.7,15.2c-3.5,1.6-3.5,1.6-1.5,5c3.8,6.4,3.9,6.5,9.5,1.7L336.7,383.4L336.7,383.4z M95.6,426.3
					L95.6,426.3c-0.1,2.1-0.1,4.2-0.1,6.3c0.2,7.2-1.8,6.5,6.9,5.8c2.9-0.3,4.1-1.5,3.7-4.5c-0.9-6.1-1.8-12.3-2.4-18.4
					c-0.4-3.9-3.3-1.9-5.1-2.2s-3.2,0.6-3.1,3C95.8,419.6,95.6,422.9,95.6,426.3L95.6,426.3z M112.6,383.4c0,1.3,0.8,1.9,1.3,2.6
					c3.9,4.9,8.2,9.6,11.8,14.9s7.7,8.6,14.5,6.4c0.8-0.3,2.2,0.2,2.5-0.7c0.5-1.2-0.9-1.7-1.6-2.4c-5.5-5.1-10.8-10.4-16.6-15.1
					c-3-2.4-6.9-3.8-10.4-5.6C113.8,383.2,113.2,383.4,112.6,383.4L112.6,383.4z M168.8,294c-0.5,0.3-0.9,0.7-1.3,1.1
					c-2.1,2.5-4.3,5-6.3,7.5c-2.5,2.9-0.3,3.4,0.6,4.7c2.6,3.4,5.4,6.7,7.7,10.4c0.9,1.4,1.9,2.6,3.4,1.2c1.5-1.4,5.4-1,4.1-4.8
					c-2.2-6.2-4.6-12.4-7-18.6C169.8,294.9,169.7,294.2,168.8,294L168.8,294z M354.9,397.5l-0.4-0.1c-0.4,0.8-0.8,1.6-1.2,2.5
					c-4.2,8.8-8.4,17.7-12.6,26.5c-3.5,7.3-4.2,6,3.8,8.8c2.8,1,4,0.4,4.5-2.6C350.9,420.9,352.9,409.2,354.9,397.5L354.9,397.5z
					 M82.6,420.4c0.1-5.8,0.1-5.8-1.9-6.1c-4.8-0.6-5.6-0.2-6.6,4.3l-2.4,10.5c-1.7,7.5-1.3,8.1,6.4,8.9c2,0.2,3.2-0.2,3.3-2.6
					C81.7,430,82.2,424.7,82.6,420.4L82.6,420.4z M55.5,358.6l0.1-0.4l-28.3-10.6c-6.9-2.6-6.9-2.6-8.2,4.7
					c-0.7,3.7-0.4,4.2,3.4,4.5C33.5,357.5,44.5,358,55.5,358.6L55.5,358.6z M378.8,398l-0.6,0.2c2.5,9.7,5,19.3,7.6,29
					c2.2,8.4,0.8,7.9,9.3,4.4l0.6-0.2c1.7-0.6,1.9-1.7,1-3.2C390.7,418.1,384.8,408.1,378.8,398L378.8,398z M92.6,330.7
					c2.1-10.9,4-20.8,5.8-30.7c1.2-6.2,1.2-6.2-5-7.1c-4.5-0.6-5.2-0.1-4.7,4.3C89.9,308.1,91.2,318.9,92.6,330.7L92.6,330.7z
					 M68.7,411.9c-0.3-3.4-3.5-2.5-5-4.1c-1-1.1-1.5,0.6-2,1.1c-3.1,3.4-6.2,6.9-9.2,10.4c-5.4,6.2-6,4.8,1.7,9.8
					c2.1,1.4,3.5,1.2,4.8-1c2.8-4.8,5.8-9.5,8.7-14.2C68.1,413.3,68.4,412.6,68.7,411.9L68.7,411.9z M399.5,382.6l-0.5,0.7
					l26.7,19.6c1.2,0.9,2.2,0.5,2.8-0.8c1-2,2-4,3.1-5.9c0.9-1.7,0.2-2.5-1.3-3.1L399.5,382.6z M115.9,412l-3.1,0.3
					c-3.3,0.3-3.5,0.6-2,3.6c1.8,3.7,3.8,7.3,5.7,10.9c3.7,6.9,3.6,6.8,10.5,3.1c2.2-1.2,2.7-2.3,1.1-4.3c-2.9-3.9-5.8-7.8-8.5-11.8
					C118.9,412.5,117.4,411.8,115.9,412L115.9,412z M336.8,335.5c0.3-0.9-0.4-1.4-0.7-2c-3.5-7.3-8.4-13.6-13-20.2
					c-4.3-6.1-2.7-6.9-9.4-1c-3,2.7-3,2.9,0.2,5.4c6.8,5.4,13.5,10.8,20.3,16.1C335,334.5,335.6,335.5,336.8,335.5L336.8,335.5z
					 M363.1,327.6c1.1-9.5,2.2-18.5,3.3-27.5c1.1-9.4,1.2-9.3-8.2-8c-1.6,0.2-2.3,0.8-1.9,2.4C358.5,305.3,360.8,316.2,363.1,327.6
					L363.1,327.6z M403.3,356.4l0.2,0.6c9.1-0.6,18.3-1,27.4-1.8c2.2-0.2,5.5,1.2,6.6-1.3c0.9-2.1-0.5-4.9-1.1-7.4
					c-0.4-1.9-1.5-2.5-3.2-1.8C423.2,348.6,413.2,352.5,403.3,356.4L403.3,356.4z M131.4,352.6c7.8-0.4,15.5,0.1,23.1-0.3
					c2.1-0.1,4.2-1.3,6.3-2c0.8-0.3,1.7-0.8,1.4-1.8c-0.8-2.9-0.8-6.5-3.1-8.4c-1.9-1.5-4.1,1.4-6.2,2l-0.6,0.3L131.4,352.6z
					 M57.6,384.2c-1.2-0.1-2.4,0.1-3.5,0.7c-7.7,2.6-15.3,5.3-23,8s-7.5,2.5-3.6,9.5c1.3,2.3,2.5,2.7,4.6,1
					c5-3.9,10.1-7.6,15.1-11.4L57.6,384.2z M389.2,333.2l0.3,0.2c6.4-5.9,12.9-11.7,19.2-17.8c6-5.8,7.2-4.2-0.8-10.3
					c-0.2-0.1-0.4-0.2-0.5-0.4c-1.3-1.1-2.3-0.8-3.1,0.6C399.3,314.8,394.2,324,389.2,333.2L389.2,333.2z M335.8,214.7
					c2.7-0.5,5.4-1,8.1-1.4c2-0.2,2.4-0.9,1.3-2.6c-3.2-5-7.2-9.4-11.9-12.9c-1.4-1.1-2-0.8-2.7,0.9c-2.1,5.3-3.7,10.4,2.5,14.2
					c0.2,0.2,0.4,0.5,0.6,0.7C334,214.5,334.9,215,335.8,214.7z M330.3,360.2l-36-6.5c-1.5-0.3-2.1,0.5-2.2,1.9
					c0,0.9-0.1,1.9-0.2,2.8c-0.7,2.3,0.3,3,2.5,3C306.3,361.4,318.3,361.6,330.3,360.2L330.3,360.2z M119.8,411.9
					c3.5,4.8,6.7,9,9.7,13.4c1.6,2.4,3.3,1.7,4.6,0.1c1.7-2.1,7-2.2,4.5-6.8c-1.4-2.5-3.5-4.5-5.3-6.7c-0.4-0.8-1.2-1.2-2.1-1.1
					C127.5,411.1,124,411.5,119.8,411.9L119.8,411.9z M132.5,377c-1.3-0.1-2.7-0.2-2.9,1.5s1.4,1.5,2.4,1.8c2,0.6,4.1,1,6.1,1.6
					l20.5,5.1c3.4,0.8,3.1-1.8,3.7-3.7c0.5-1.6,0.5-3-1.6-3.2L132.5,377z M186.6,353.7c4.6,0.1,4.6,0,3-3.9
					c-0.9-2.1-1.9-4.2-2.8-6.4c-0.5-1.1-1.2-1.8-2.4-1.4c-2.2,0.6-3.2-0.3-3.4-2.4s-1.6-4.6,1.8-5.4c1.5-0.4,1.7-1,1.2-2.2
					c-1.1-2.9-2.1-5.7-3.2-8.6c-0.3-0.8-0.6-1.6-1.7-1.5c-2.3,0.1-4.1,2-4.1,4.3c0,0.7,0.2,1.3,0.5,1.9c3.5,6.9,5.8,14.3,7.1,21.9
					C182.8,352.9,184,354.3,186.6,353.7L186.6,353.7z M126.9,388.5l-0.2,0.4c5.5,5.1,11.2,10.1,16.5,15.5c2.7,2.6,5.5,2.2,8.5,1.6
					c2.1-0.5,2.8-2.5,3.4-4.3c0.4-1.1-0.9-1.5-1.8-1.9C144.5,396,135.7,392.2,126.9,388.5L126.9,388.5z M153.9,329
					c-0.1-0.9-0.6-1.2-1.4-0.9c-0.8,0.3-1.6,0.6-2.3,1c-13.2,7.2-26.4,14.3-39.7,21.5c-1.2,0.8-2.4,1.7-3.4,2.8
					c-0.6,0.6-1.7,1.3-0.8,2.3s1.8,0.3,2.6-0.2c2.9-1.6,5.7-3.2,8.5-4.9l34.2-19.8C152.5,330.4,153.6,330.2,153.9,329L153.9,329z
					 M105,415.7c0.9,6.2,1.7,12.6,2.7,19.1c0,1.1,0.9,1.9,1.9,1.9c0,0,0,0,0.1,0c0.4,0,0.8-0.1,1.1-0.4c2.3-1.2,5.9,0.1,6.9-3.7
					c0.1-0.3-0.2-0.6-0.3-0.9c-3-5.8-6-11.6-8.9-17.4c-0.5-0.9-1.1-1.6-2.3-1.3S105.2,414.5,105,415.7L105,415.7z M73.2,415.9
					c0.3-1.6-1-2-2-2.5c-1.2-0.6-1.8,0.1-2.3,1c-2.2,3.5-4.3,7-6.5,10.5c-4.5,7.3-4.3,7.7,3.9,10c0.1,0,0.2,0,0.3,0.1
					c0.7,0.5,1.6,0.3,2-0.3c0,0,0-0.1,0.1-0.1c0.1-0.3,0.2-0.5,0.3-0.8C70.5,427.7,71.9,421.8,73.2,415.9L73.2,415.9z M101.7,389.1
					c0.3,7.1,1.3,13.3,4.8,18.9c0.8,1.2,1.4,2.2,3.2,1.8c1.4-0.3,2.9-0.4,4.4-0.3c1.5,0,2-0.6,1-1.9L101.7,389.1z M326.4,226.7
					c-1.3,0.2-1.1,0.9-1.1,1.7c0.2,7,1,14,1.8,21c0.1,0.9-0.3,3.1,1.9,2.3c1.8-0.7,4.8-1.1,4.2-3.8c-1.6-6.9-3.7-13.7-6.1-20.4
					C326.9,227.2,326.7,226.9,326.4,226.7L326.4,226.7z M325.3,206c0.8,0,1.1-0.5,1.3-1.2c0.8-2.7,1.7-5.4,2.5-8.1
					c0.3-1.1-0.2-1.7-1.1-2.3c-3-1.9-5.4-1.3-9.4,2.3c-4.6,4.2-4.6,4.3,1.1,6.5C321.6,204.1,323.4,205.1,325.3,206z M330.3,269.4
					c0.4,3.1,3,5.3,3.1,8.5c0,0.2,0.7,0.7,0.9,0.6c2.3-0.7,4.6-1.4,6.8-2.3c0.6-0.2,0.3-1,0-1.4c-1.1-1.2-1-2.6-1.3-4.1
					c-1-6.6-1.6-6.9-7.5-3.9C331.2,267.5,330,267.8,330.3,269.4L330.3,269.4z M124.4,353c1.7,0.4,3.4,0.1,4.9-0.8
					c8.4-4.2,16.8-8.3,25.2-12.5c0.8-0.4,1.6-1,2.5-1.4c0.9-0.3,1.3-1.3,1-2.2c0,0,0,0,0,0c-0.1-0.2-0.1-0.3-0.2-0.4
					c-0.7-1.5-1.7-0.9-2.6-0.4L124.4,353z M163.4,282.4c-0.9,0.3-2,0-2.6,0.8c-2,2.4-4,5.1-4.4,8.2c-0.1,2.1-1.3,3.9-3.1,4.9
					c-0.6,0.4-1.2,0.7-0.7,1.4c0.5,0.7,1.1,1.3,1.8,1.7c1.1,0.6,0.6-0.6,0.9-1c1.3-1.8,4.3-2.2,4.1-5.1c0.3-0.3,0.7-0.4,1.1-0.4
					c3,0.4,4.2-2.1,5.7-3.8c1.5-1.7-0.4-3.7-0.8-5.6c-0.1-0.8-0.8-1.3-1.5-1.2c0,0,0,0-0.1,0C163.7,282.3,163.6,282.4,163.4,282.4
					L163.4,282.4z M94.6,395.1c-1.7,2.5-4.3,3.4-3.6,6.3c0.1,0.4-0.1,0.7-0.6,0.9c-4.6,1.5-5.7,3-5.9,7.2c0,1,0,1.8,1.1,1.8
					c2.6-0.1,5.2-0.4,7.8-0.6c0.7,0,1.2-0.6,1.2-1.3c0,0,0,0,0,0V395.1z M27.8,331.1c0.2,0.2,0.2,0.4,0.4,0.5
					c15.4,8.3,30.8,16.7,46.2,25c0.4,0.2,0.9,0.4,1.4,0.6c0.7,0.3,1.5,0.1,1.9-0.6v-0.1c0.3-0.7-0.3-1.1-0.9-1.4s-0.9-0.5-1.4-0.7
					l-45-22.5C29.6,331.6,28.9,330.8,27.8,331.1z M327.8,265.7c-0.8-1.7-1.3-3.5-1.6-5.3c-1-5.6-1-5.6-6.7-4.4
					c-0.3,0.1-0.6,0.1-0.9,0.1c-0.7,0.2-1.1,0.7-0.8,1.4c1.1,3.3,2.2,6.6,3.4,9.8c0.3,1,1.4,1.6,2.4,1.3c0.2,0,0.3-0.1,0.5-0.2
					C325.4,267.7,327.3,267.8,327.8,265.7L327.8,265.7z M328.2,257.3c0.4,2.1,0.9,4.7,1.4,7.3c0.2,0.9,0.8,1.2,1.6,0.8
					c1.1-0.5,2.3-1.1,3.4-1.7c2.2-1.3,2-10.4-0.3-11.7c-0.1-0.1-0.2-0.1-0.3-0.1C332.3,251.4,328.1,255.1,328.2,257.3L328.2,257.3z
					 M96.1,392.1v16c0,4.1,3,2,4.8,2.3c2.3,0.4,1.9-1.2,1.8-2.6C102.6,401.8,99.5,396.9,96.1,392.1z M373.2,279
					c1.9,0.3,3.8,0.6,5.6,0.9c1.3,0.2,2.9,1.2,3.6-0.7s2-4.2,0.8-6.3c-0.8-1.4-2.4-1.8-4.2-1.5c-4.9,0.9-9.7,1.6-14.6,2.5
					c2,0.2,4,0.1,6,0.2C375.9,274.1,375.9,274.1,373.2,279L373.2,279z M133.9,410.7c2,2.5,3.7,4.4,5.2,6.5c1.6,2.3,3,2.1,4.6,0.1
					c1-1.3,2.3-2.5,3.3-3.8c0.6-0.8,1.8-1.4,1-2.7c-0.7-1.1-2-1.7-3.3-1.5C141.3,409.7,137.9,410.2,133.9,410.7L133.9,410.7z
					 M64.3,372.2c0.3,2.9,3.5,1,5.2,1.4c2.2,0.4,4.3-1,4.7-3.3c0-0.2,0.1-0.5,0.1-0.7c0.1-3.5-1.4-5.6-4.3-5.8
					S64.7,366.9,64.3,372.2L64.3,372.2z M119.3,334.5l0.3,0.2c4.8-4.6,9.6-9.1,14.4-13.7c0.7-0.7,1.8-2.3,0.4-2.3
					c-1.6,0-2.4-3.6-4.3-0.8C126.6,323.5,123,329,119.3,334.5z M367.6,351.8l0.5,0.1c4.7-19,9.5-38.1,14.2-57.1l-1.2-0.3
					C376.7,313.6,372.2,332.7,367.6,351.8z M290.5,320.7c3.9-5.7,8.2-11.1,12.9-16.2c4.7-4.9,10.4-8.7,15.4-13.3
					C306.1,297.9,297.3,308.3,290.5,320.7L290.5,320.7z M328.7,271.4c-0.4-0.7,0.1-2.9-1.7-2s-4.9,0.1-4.6,3.4c0.2,3,3.8,4.7,3.4,8
					c-0.1,0.6,0.9,0.8,1.6,0.6c0.9-0.2,1.9-0.5,2.2-1.5c0.4-0.9,0.1-2-0.7-2.6c-2-1.4-1.9-2.8-0.5-4.4
					C328.7,272.5,328.8,271.9,328.7,271.4L328.7,271.4z M291.7,256.4c4.3-0.4,8.3-1.4,12.5-1.4c0.7,0,2,0.4,2-0.8
					c0-1.6-0.5-3.1-1.4-4.4c-0.6-0.8-1.3-0.1-2,0.2C299.1,252.1,295.4,254.2,291.7,256.4z M169.1,328c3.4,8,5.6,16.3,8.1,24.5
					C176.4,343.8,173.6,335.5,169.1,328z M67.7,402c2.5-0.6,3.8-3.1,6.6-3.4c3-0.3,4.3-2.4,3.9-5.6c0-0.5-0.2-1-0.5-1.4
					c-0.7-0.5-1.1,0.3-1.5,0.7C73.4,395.5,70.5,398.7,67.7,402L67.7,402z"/>
			</g>
		</g>
	</g>
</g>
</svg>
