<?xml version="1.0" encoding="utf-8"?>
<!-- Generator: Adobe Illustrator 24.1.1, SVG Export Plug-In . SVG Version: 6.00 Build 0)  -->
<svg version="1.1" id="Layer_1" xmlns="http://www.w3.org/2000/svg" xmlns:xlink="http://www.w3.org/1999/xlink" x="0px" y="0px"
	 viewBox="0 0 402.3 402.3" style="enable-background:new 0 0 402.3 402.3;" xml:space="preserve">
<style type="text/css">
	.st0{fill:#FFFFFF;}
	.st1{fill:#919191;}
</style>
<g id="Layer_2_1_">
	<g id="Layer_1-2">
		<path class="st0" d="M194.8,210.2l-79.2,96.9l-42.8,52.3c-11.1-9.3-21.2-19.8-30.2-31.1c-26.2-32.7-39.2-72.9-39.2-116
			c0-95.8,69.8-175.8,164.6-188.8c5.9-0.8,11.7-1.1,17.6-1.4s8.3,1.9,8.2,8c-0.3,14.9-0.1,29.8-0.1,44.7v29c0,32.5,0,65,0,97.5
			C193.7,206.3,193.7,208.9,194.8,210.2z"/>
		<path d="M341.4,331.6c-33.4,41.4-77.3,65.5-130.2,69.9c-53.7,4.5-100.1-9.8-138.5-42l42.8-52.3l79.2-96.9c1.3,1.5,3.9,1,9.8,0
			c42-7.4,84-14.8,126-22.2c13.7-2.4,27.3-4.9,40.9-7.3c6.7-1.2,9.8-0.3,10.6,7.3C387.8,241.4,375.2,289.7,341.4,331.6z"/>
		<path class="st1" d="M391.4,159.4c-20.3,3.6-40.6,7.1-60.9,10.7c-33.6,5.9-67.2,11.8-100.8,17.7c-18,3.1-18.1,2.9-18.1-15.7V11.7
			c0-12.5,0-12.2,12.3-11.4c41.4,2.7,78.2,17.3,109.9,43.7c33.7,28.1,55,64,64.7,106.8C400.1,157.7,396.4,158.5,391.4,159.4z"/>
		<path d="M340.4,104.5c0,5.7,0.1,11.5-0.4,17.2c-0.4,4.6-1.1,9.1-2,13.6c-1.1,5.5-2.2,11-3.5,16.5c-0.9,4.1-2.2,8.1-3.1,12.2
			c-0.4,2-0.8,4-1,6.1c-33.6,5.9-67.2,11.8-100.8,17.7c-18,3.1-18.1,2.9-18.1-15.7v-68.1c1.6,0.1,3.2,0.3,4.8,0.5
			c5.7,0.7,11.3,1.8,16.9,2.7c2.7,0.4,5.4,1.1,8.1,1.5c6.8,0.8,8.1,1,15-0.2c1.6-0.4,3.1-0.9,4.6-1.5c3.4-1.2,6.2-3.4,9.1-5.3
			c3.9-2.6,7.6-5.5,11.3-8.3c3.3-2.6,6.8-5,10.3-7.4c4.8-3.2,9.8-5.9,15.1-8.1c4.7-2.1,9.8-3.2,14.9-3.2c2.5-0.1,5.1,0.1,7.6,0.6
			c3.2,0.8,6,2.3,7.8,5.3c1.6,3,2.6,6.3,3,9.7C340.7,94.9,340.4,99.7,340.4,104.5z"/>
		<path d="M335.3,213.1c0.2,3.3,0.5,6.6,0.4,9.9c-0.2,5.5-0.6,11-1.4,16.5c-0.8,5-1.9,10-3.4,14.8c-1.2,3.6-2.7,7.2-4.4,10.6
			c-2.4,4.9-5.3,9.5-8.7,13.8c-3.9,4.8-8.2,9.2-12.7,13.4c-2.7,2.5-5.6,4.6-8.5,6.9c-4.4,3.4-9,6.4-13.8,9.1
			c-5.4,3.1-11,5.9-16.7,8.3c-4.4,1.8-8.9,3.7-13.4,5.1c-4,1.2-7.9,2.5-11.9,3.5c-25.9,3.8-52.3,4-78.3,0.6l-7.5-2.3
			c-6.3-1.9-12.6-4-18.7-6.4c-5.9-2.2-11.7-4.9-17.3-7.9c-1.1-0.6-2.2-1.2-3.3-1.9c-3.2-1.9-6.2-3.9-9.2-6.1
			c-4.5-3.2-8.8-6.6-12.9-10.3c-3.2-2.9-6.2-6.1-9-9.4c-3.7-4.4-7.1-9.2-9.9-14.3c-2.3-4.4-4.4-9-6-13.6c-1.2-3.3-2.2-6.6-3-10
			c-0.9-3.8-1.6-7.7-2-11.6c-0.4-3.7-0.5-7.4-0.4-11.2c0.2-5.1,0.6-10.2,1.4-15.3c0.9-6,2.5-11.9,3.4-17.9c0.6-4.1,1-8.2,1.3-12.3
			c0.2-4.9,0.1-9.8-0.3-14.7c-0.4-3.7-1-7.3-1.8-10.9c-1.8-8.5-3.7-17.1-4.5-25.9c-0.6-6.2-0.9-12.5-0.7-18.8
			c0.2-4.1,0.3-8.2,0.4-12.2c0.2-3.8,0.8-7.6,2.9-11c0.6-1.1,1.5-2,2.5-2.8c2-1.5,4.1-2.9,6.4-3.9c1-0.4,2.2-0.6,3.3-0.6
			c7.2,0.3,14.3,2,20.9,4.9c4.7,2,9.3,4.4,13.5,7.2c4.3,2.9,8.5,6,12.4,9.3c2.9,2.7,6,5.2,9.2,7.6c2.2,1.5,4.5,2.8,7,3.7
			c3.1,1.1,6.4,1.8,9.8,2c3.1,0.1,6.1-0.1,9.1-0.7c2.7-0.4,5.4-0.8,8.1-1.4c4.6-0.9,9.2-1.4,13.8-2c2.1-0.3,4.2-0.7,6.3-0.8
			s4.1-0.3,6.2-0.4c0,32.5,0,65,0,97.5c0,4.9,0,7.6,1,8.9c1.3,1.5,3.9,1,9.8,0c42-7.4,84-14.8,126-22.2c0.4,2.4,1,4.8,1.6,7.2
			C333.7,201,334.8,207,335.3,213.1z"/>
	</g>
</g>
</svg>
