<?xml version="1.0" encoding="utf-8"?>
<!-- Generator: Adobe Illustrator 24.1.1, SVG Export Plug-In . SVG Version: 6.00 Build 0)  -->
<svg version="1.1" id="Layer_1" xmlns="http://www.w3.org/2000/svg" xmlns:xlink="http://www.w3.org/1999/xlink" x="0px" y="0px"
	 viewBox="0 0 1369 64.4" style="enable-background:new 0 0 1369 64.4;" xml:space="preserve">
<g id="Layer_2_1_">
	<g id="Layer_1-2">
		<path d="M0,14.5c2.4,2.7,4.6,5.6,6.6,8.7c2.3,3.3,4.5,6.5,8.6,7.8c0.5,0.2,0.9,0.6,1.4,0.8c1,0.3,1.6,2,2.9,1
			c1.4-1.3,1.6-3.5,0.6-5.1c-0.8-1.1-1.5-2.2-2.1-3.4c1,0.5,1.9,1.3,2.5,2.3c1,1.2,1.6,1.3,2.4-0.2c1.6-2.9,3.4-5.6,5.6-8.1
			c0,1-0.4,1.9-1,2.6c-1.4,2.4-2.7,4.9-3.8,7.4c-0.5,1.2,0.8,4.4,1.9,4.9c0.6,0.3,1-0.2,1.4-0.5c3.6-2.8,7.6-3,11.7-1.3
			c1.7,0.8,3.7,0.8,5.4,0.1c4.3-1.7,4.4-1.6,3.2-6c-0.2-0.6-0.2-1.2,0.1-1.7c0.6,1.3,1.2,2.6,1.6,4c0.4,1.7,1.3,2.2,2.9,1.8
			c0.6-0.1,1.3-0.5,1.9,0c-0.2,0.6-0.8,0.6-1.3,0.9c-0.8,0.4-1.8,0.2-1.9,1.4c0.1,1.1,0.7,2.1,1.7,2.6l0.1,0.1
			c0.2,3.1,3,2.8,5.1,3.7c-1.4,0.8-2.7-0.3-4.3,0.4c2.7,1.1,3.7,4.5,7.1,3.4c0.4-0.1,1.5,0.3,0.6-0.8c-0.3-0.4,0.3-0.5,0.6-0.6
			c1-0.2,1.3-1,1.9-1.6c2.5-2.9,1.6-6.2,1.4-9.4c-0.3-4.3-1.4-8.6-1.9-12.9c1.6,4.1,2.8,8.4,3.5,12.7c0.5,2.9,0.8,5.8,0.9,8.8
			c0,0.5-0.1,1.4,0.8,1.3c0.7-0.1,0.3-0.9,0.3-1.4c-0.4-2-0.6-4.1-0.6-6.2c1.4,1.9,2.5,4,3.2,6.3c0.5,1.5,1,2,2.2,0.5
			c0.8-0.9,1.7-1.7,2.7-2.4c1-0.7,0.8-1.1,0-1.8c-1.8-1.5-3.9-2.3-6.2-3.7c1.7-0.2,3.3,0.1,4.8,0.9c3,1.2,5.8,3,8.1,5.3
			c0.7,0.7,1.4,1.4,2.5,0.8s0.5-1.6,0.3-2.3c-0.8-3.7-1.7-7.5-2.6-11.4c1,0.4,1,1.2,1.3,1.8c1.2,3.2,2.4,6.3,3.5,9.5
			c0.3,1.3,1.5,2.2,2.8,2.2c2.2,0.1,4.3,0.7,6.1,1.9c1.4,1,2.3,0.8,3-0.7c0.1-0.5,0.5-0.8,1-0.9c0.1,1-0.1,2-0.6,2.8
			c-0.3,0.6-0.2,1.3,0.4,1.7c0.1,0,0.1,0,0.1,0.1c0.9,0.4,0.8-0.6,1.1-1c0.6-1,0.8-2.1,1.9-3.2c0,2-1.8,4.2,1.3,5.1
			c0-3.8-1-7.4-1.6-11.7c1.1,1.1,2,2.5,2.5,4c0.8,1.8,1.4,3.6,2,5.5c0.3,1,1.2,1.8,2.2,2.1c2.1,0.8,4.1,1.5,4.7-2l0.4,0.5l-0.6,2.5
			l0.2,0.1c0.3-0.7,0.7-1.4,1.2-2c1-1.4,0.7-2.5-0.4-3.8c-2.2-2.7-5-4.9-8.2-6.5l-1.8-0.9c1.6-0.2,3.2,0,4.6,0.8
			c2.6,0.9,4.9,2.3,6.9,4.1c1.5,1.4,2.2,1,3.2-0.4c1.4-2.1,3.2-3.9,5.3-5.2c-1.3,1.8-2.6,3.5-3.8,5.3c-1.9,2.9-1.9,2.9,0,5.7
			c0.2,0.4,0.4,0.7,0.7,1c1.9,3,1.9,2.9,5.3,2.1c1.3-0.3,1.7-0.6,0.7-1.7c-0.3-0.3-0.5-0.6-0.7-1c0.6-0.4,0.9,0.1,1.1,0.4
			c1.5,1.5,2.8,1.3,4.4,0.1c1.3-1,0.9-1.4-0.3-1.8c-1.6-0.6-3.2-1.3-4.9-2c0.2-0.8,0.8-0.6,1.2-0.5c2,0.3,4,0.7,6,1.1
			c1.2,0.2,2.1,0.7,3.5-0.3c0.8-0.6,2.8-0.7,4.3-0.9c1.1-0.1,2-0.7,2.6-1.6c0.8-1.2,1.7-2.3,2.8-3.2c2.5-2,2.7-4.4,2-7.1
			c-0.6-2.3-1-4.6-1.5-7.2c0.5,0.3,0.9,0.8,1,1.4c1.6,5.2,3.1,10.5,3.3,16c0.1,3.2,2.5,4.3,4.4,5.8c0.8,0.6,2.7-1.8,2.5-3.1
			c-0.5-1.6-0.9-3.2-1.1-4.9c0.9,0.8,0.7,2,1.8,2.8c-1.9-6.4-4.7-12.4-8.3-18c0.8,0.2,1.4,0.7,1.8,1.4c3.4,4.4,6.1,9.3,8.2,14.5
			c0.7,1.7,1.1,3.4,3.5,2c0.2,0.8-0.3,1-0.7,1.3c-0.9,0.5-1.3,1.6-0.8,2.5c0,0,0,0,0,0l0,0c0.5,1.3,0.8,2.6,1.1,3.9
			c0.2,1,1.1,1.8,2.1,1.9c0.5,0.1,1-0.2,1.1-0.7c0,0,0,0,0,0c0.5-1.1-0.1-1.8-0.8-2.5c-0.3-0.4-0.6-0.8-0.8-1.3
			c2.3,2,2.8,0.2,3.9-1.2c1.7-2.2,1.4-3.8-0.3-5.8c-1.2-1.2-2.2-2.7-2.8-4.3c2,1,3,2.6,4.3,3.7s2.2,2.6,3.6,0.2
			c0.2,0.3,0.4,0.4,0.4,0.5c-0.1,0.9-1.5,1.8-0.4,2.5s1.4-0.9,1.8-1.6c2.4-3.3,5.2-6.1,9.4-6.8c1.2-0.2,1-0.8,0.6-1.6
			c-0.8-1.5-1.4-3-2-4.6c1.6,1.2,2.2,3,3.3,4.6c0.4,0.5,0.6,1.4,1.4,1.3s0.8-1,1.1-1.5c1-1.9,1.5-4,3.3-5.6c-0.3,2-0.7,4-1.2,5.9
			c-0.7,2.3,1,2.4,2.3,3c1.4,0.8,2,0,2.3-1.2c0.8,0.1,0.9,0.7,1,1.2c0.5,2.5,2.6,3.7,4.3,5.2c0.5,0.4,0.9,0.8,1.3-0.3
			c0.3-0.9,1.4-1.2,1.9-2.1c1.5-2.2,1.5-2.2-0.7-3.4c0-0.1,0.1-0.2,0.1-0.3c2.4,0.7,3.9-0.4,5.1-2.4c0.9-1.2,1.9-2.3,3.1-3.3
			c-0.6,1.7-1.6,3.2-2.7,4.6c-0.8,1.1-0.9,1.7,0.8,2.2s3.2,0.7,4.2-1.3c0.7-1.2,1.9-2,3.3-2.1c-1,1.4-1.7,2.4-2.4,3.5
			c-0.3,0.4-0.8,1-0.1,1.4c0.4,0.3,1,0.5,1.5,0.5c0.7,0.1,0.8-0.6,0.9-1.1c0.1-0.9,0.4-1.8,0.9-2.6c0.8,0.9,0.3,1.8,0.2,2.6
			c-0.3,1.2,0.4,2.5,1.6,2.9c1,0.5,2,1.1,2.9,1.8c1.1,0.8,1.6,0.5,1.9-0.8c0.6-3.9,1.3-7.7,2-11.5c0.1-0.9,0.4-1.7,0.7-2.5
			c0.1,5.8-1.3,11.5-1.1,17.2h0.6c0.2-2.3,0.5-4.7,0.8-7.3c0.6,0.7,0.8,1.6,0.7,2.5c0.1,2.2-0.1,4.4,0.5,6.6
			c0.1,0.4,0.4,0.8,0.8,0.9c0.5,0.1,0.5-0.4,0.6-0.7c0.8-3.5,1.9-6.9,3.2-10.2c0.4-1.3-0.2-2.6-0.4-4s-0.5-2.6-0.7-4
			c1.3,1.5,1.2,3.5,2.2,5.6c2.5-4.7,5.3-9.2,8.5-13.5c0.2,0.7,0,1.4-0.5,1.9c-2.5,4.2-4.6,8.6-6.1,13.2c-0.7,2-0.8,4.1-0.2,6.1
			c0.4,1.6,0.7,3.3,1,4.9c0.1,0.6,0.3,1.4,1.1,1.5s1.2-0.4,1.5-1.1c2.3-6.1,5.3-12,8.8-17.5c0.8-1.3,0.2-2.8,0.6-4.2
			c0.7,0.5,0,1.4,0.9,2c5.3-7.5,11.2-14.7,18.5-20.5c-1.6,1.9-3.2,3.8-4.8,5.8c-5.2,6.2-9.5,13.1-12.6,20.6c-1.2,3-1.2,3,1.8,3.7
			c3.3,0.8,3.3,0.8,3.4-2.7c0-1,0.1-1.9,0.2-2.9c1.2,1.7,0.5,3.6,1,5.4c0.2,0.5-0.2,1.4,0.6,1.5c0.6,0.1,0.7-0.7,1.1-1
			c1.4-1.2,1.1-2.6,0.4-4c-0.6-1.1-1.2-2.2-2-3.5c1.4,0.1,2.7,1.1,3.2,2.4c0.8,1.5,1.3,1.5,2.4,0.2c2.1-2.7,4.8-5,7.8-6.7
			c2.3-1.4,5-1.8,7.6-1c1.4,0.5,1.9-0.1,2.4-1.3c1.4-3.2,3-6.3,4.8-9.3c0.3-0.5,0.4-1.1,1.4-1.3c-0.9,2.2-1.7,4.2-2.5,6.3
			c-0.3,0.8-0.6,1.6-0.9,2.3c-1.3,3.2-2,6,1,8.9c1.8,1.7,2.7,4.3,3.5,6.8c0.5,1.7,1.5,2,3,1.5c1.1-0.3,2.2-0.5,3.3-0.6
			c-0.9,1.2-2.4,1.3-3.6,1.8s-1.5,1-1.1,2.3c0.8,2.4,1.3,4.9,2.1,7.6c0.9-1.4,1-2.9,1.5-4.2c0.8-2.3,1.7-4.5,2.7-6.7
			c1.3-2.2,1.6-4.9,0.9-7.4c-0.3-0.6-0.4-1.4-0.1-2c0.8,0.6,0.8,1.6,1,2.3c1.1,3.5,2.1,7.1,3,10.7c0.3,1.3,0.8,1.6,2.1,1
			c2.7-1.3,2.7-1.2,2.1-4.4c1.3,0.5,1,2.8,2.8,2.5c1.3-0.3,2.6-0.7,3.9-1.1c2.1-0.6,0.4-2.4,1-3.4h0.3c1,3.2,3.3,2.5,5.6,2.1
			c2.9-0.5,5.9-0.9,8.9-1c1.8-0.1,2.4-0.8,2.8-2.4c0.5-2.5,1.1-5,1.8-7.5c0.3-1.1,0.8-2.2,1.5-3.1c-0.5,2.9-1.1,5.9-1.6,8.8
			c-0.6,3.6-0.6,3.6,3,3.7c0.8,0,1.5,0,2.3,0.1c-1.3,0.7-2.7,1-4.1,1.1c-1.1,0-2,0.9-2,2v5.6c0,0.5-0.3,1.3,0.8,1.3
			c0.4,0,0.5,0.2,0.3,0.5c-1.8,1.7-0.5,3.7-0.4,5.5c0.1,1.3,0.3,2.6,0.6,3.8c0.1,0.5,0.2,1,0.9,0.5c1.5-1.1,2.1-4.2,1-6.2
			c1.6,1,2.7,0.8,3.5-0.7c0.6-1.1,2.3-1.7,0.8-3.6c2.3,1.3,4.6,0,4.6-2.1s-0.3-4.1,0.3-6.6c1.1,1.8,0.6,3.5,0.9,5.1s0.6,2.1,2.3,1.5
			c2.4-0.9,4.9-1.3,7.5-1.2c-0.3,0.7-1,1.2-1.8,1.2c-2.3,0.4-2.9,2.2-3.6,4c-0.3,0.6-0.2,1.4,0.2,1.9c0.6,1,1.3,2.1,1.8,3.1
			s1.2,1.2,1.5,0s1.2-1.7,1.9-2.4c2.1-2.3,4-4.7,6.3-6.8c0.6-0.6,0.5-1.3,0.5-2.1c-0.2-2.8-0.6-5.6-1.1-8.4c1.5,1.8,1.7,4.1,2.3,6.2
			s0.6,2.1,2.2,0.6c0.5-0.6,1.2-1.1,2-1.4c0,1.2-1,1.7-1.6,2.3c-0.8,0.5-1.1,1.6-0.5,2.5c0,0,0,0,0,0c0.1,0.1,0.1,0.2,0.2,0.3
			c1.7,2.4,3.2,5,4.4,7.7c-0.5-3.5-0.7-7-0.6-10.5c2.3,4.1,4.1,8.5,5.5,13c1-1.2,1.6-2.6,1.8-4.1c0.7-3.4,2-6.7,4-9.6
			c1.1-1.8,2.8-3.2,4.8-3.9c-3.5,3.9-5.6,8.9-5.9,14.1c1.9-0.6,1.5-1.9,1.4-3.1c1.4,0.8,3.4-0.7,3.8-2.7c0.3-1.6,0.6-3.2,1-4.7
			c0.1-0.9,0.4-1.7,1-2.4c0.4,1.7-0.3,3.2-0.1,4.6c0,0.4-0.1,0.9,0.4,1c0.3,0,0.6-0.2,0.9-0.4c1.1-0.5,1.6-1.8,1.2-2.9
			c-0.3-0.8-0.3-1.8,0-2.6c1,2.3,1.1,4.7,2.1,6.9c0.8-2.5,1.5-4.9,2.4-7.4c0.6-1.5,1.4-2.9-0.1-4.5c3.5,2.1,1.7-1.9,3-2.2
			c0,0.1,0.2,0.3,0.1,0.5c-1.6,4.9,2.5,7.4,4.6,10.6c0.8,1.3,2.9,0.9,4.4,0.9c0.7,0,0.8-0.9,0.9-1.4c0.2-0.8-0.4-1.2-1.1-1.5
			c-2.1-0.9-4.2-1.9-6.2-3.1c2,0.5,4.1,0.8,6,1.4c1.5,0.5,2.2,0.2,2.6-1.4c0.6-2.4,1.2-4.7,2-7c0.2-0.9,0.1-1.9-0.5-2.7
			c-0.6-1-1.2-2.1-1.6-3.2c1.9,1.7,3.4,3.7,4.6,6c1.3,2.2,2.5,4.4,3.8,6.6c1-0.7,0.9-2,2-2.8c0.2,1.7-0.7,3.2-0.7,5
			c2.1-1.5,4.3-2.8,6.7-3.7c4-1.5,7.9-1.5,11.7,0.8c1,0.4,1.6,1.5,1.4,2.6v0.4c0.6,4.4-0.4,8.9-2.6,12.7c0.4,0.1,0.5,0.2,0.6,0.2
			c0.6-0.3,0.9-1.3,1.6-1s0.4,1.3,0.4,2c0,5.6-0.1,11.3-0.1,16.9H2.2c-1.5,0-1.9-0.3-1.9-1.9C0.1,46.4,0,30.4,0,14.5z M278.8,29.7
			c1.6-4.7,0-7.1-4.6-6.5c-3.8,0.4-6.5,2.8-9.1,5.3c-0.2,0.2-0.3,0.4-0.4,0.7c-0.4,1.9,1.8,6.4,3.3,7.7s1.8,0.4,2.1-0.9
			c0.6-2.4,1.3-4.7,2-7c-0.1,2.7-0.5,5.4-1.1,8.1c-0.1,0.7-0.6,1.5,0.1,2.1s1.5-0.1,2.2-0.4c0.7-0.4,1.4-0.8,2.2-1.1
			c2.9-0.8,3.1-1.1,3.1-5c0-0.9-0.4-1.7-0.9-2.4c-0.6-0.9-1.1-1.7-1.9-2.9C277.5,27.8,277.8,29.2,278.8,29.7L278.8,29.7z
			 M319.4,36.2c3.5,1.4,6.5,4,8.5,7.2c0.3,0.6,0.5,1.7,1.5,1.3c1-0.3,1.7-1.2,1.8-2.2c0-2.7,0.2-5.3,0.5-8c0.2-1.1-0.4-1.5-1.4-1.3
			C326.6,33.9,323,34.9,319.4,36.2z M432,34.2c-0.2-0.7-0.8-0.8-1.2-1c-3.5-1.2-6.8-0.4-9.9,1.2c-0.5,0.3-1.3,0.4-1.3,1.1
			c0.1,0.7,0.5,1.3,1.2,1.5c1.9,0.9,3.8,1.8,5.6,2.7c0.5,0.3,1,0.4,1.4-0.2c1.1-1.8,2.4-3.4,3.9-4.9C431.8,34.4,431.9,34.3,432,34.2
			z M51,43c-0.1-2.2-1.7-4-3.9-4.2c-1.9,0-4.5,3.3-4.4,5.7s2.5,1.6,3.8,2.1S51.1,44.2,51,43z M210.3,39.6c-0.4,1.2-0.9,2.5-1.3,3.7
			c-0.1,0.4-0.5,1,0.1,1.3s0.7-0.4,0.9-0.8c1.6-3,1.9-6.4,2.9-9.6c0.4-1.5-1.6-2-2.8-2.7s-1.4,0.5-1.7,1.2c-0.6,1.2-1.3,2.4-2,3.5
			c-1.3,1.8,0.6,2.4,1.4,3.5C208.7,41,209.3,40,210.3,39.6L210.3,39.6z M314.7,52.8c0.6-2.2,2.6-4.4-0.5-6.7
			c2.4,0.5,2.2-0.8,2.1-2.1s-0.1-2.5-0.3-3.8c-0.1-0.8,0.3-1.9-0.5-2.2s-1.8,0.4-2.5,0.9c-0.9,0.7-1.3,2-0.8,3.1
			C313.3,45.5,314.1,49.1,314.7,52.8L314.7,52.8z M412,24.8l-0.9,5.1c-0.6,3.6-0.6,3.6,2.9,4.7l0.4,0.1c1.5,0.6,2.1-0.1,1.7-1.5
			C415.3,30.1,413.9,27.2,412,24.8z M181.2,44.7c0.1-0.1,0.2-0.1,0.4-0.2c3.2-2.5,6-5.3,6.5-9.7c0.1-0.9-0.2-1.2-1-0.7
			c-3.2,2.3-5.6,5.6-6.6,9.4c-0.2,0.5,0.1,1,0.6,1.2C181.1,44.6,181.2,44.6,181.2,44.7L181.2,44.7z M322.8,42.6
			c-0.5-1.9-1.5-3.6-3-4.9c-0.4-0.4-0.9-1.1-1.5-0.7s-0.1,1,0,1.5c0.6,2.3,1,4.7,1.2,7.1c0.1,0.9-0.2,2.2,0.7,2.5s1-1.1,1.7-1.7
			c1.4-1.3,1.5-2.4-0.4-3.3c-0.3-0.1-0.6-0.4-0.5-0.7c0,0,0,0,0-0.1C321.6,42,322,42.8,322.8,42.6z M150.5,44
			c-0.1-0.6-0.4-1.2-0.9-1.6c-1.1-0.8-2.4-1.4-3.7-1.6c-1.1-0.2-2.2,0.5-2.4,1.6c-0.1,0.4,0,0.7,0.1,1.1c0.6,1.3,1.5,2.4,2.6,3.3
			c0.9,0.6,1.8-0.8,2.8-1.2C149.7,45.2,150.6,45,150.5,44L150.5,44z M200.2,40.4c-0.3-1.6-0.6-3.3-1-4.9c-0.1-1-1-1.7-2-1.6
			c0,0,0,0,0,0c-1.5,0.2-0.5,0.9-0.1,1.4c0,0.1-0.4,0.4-0.6,0.6c-1.3,1.3-1.5,3.3-0.5,4.8c0.9,1.4,2.3,1.1,3.6,1.1
			C200.4,41.8,200.1,41,200.2,40.4z M361.6,50.7c1.3-3.3,2-6.8,2.1-10.4l-3,4C358.3,47.8,358.3,47.8,361.6,50.7z M80.8,57.1
			c1.6-3.2,2.5-6.7,2.4-10.3c0-0.7-0.4-1.1-1-0.5c-1.3,1.1-2.7,2.3-2.4,4.3S80.3,54.6,80.8,57.1z M130.1,55.4
			c1.1-1.8,2.1-3.5,1.7-5.7c-0.5-2.9-1.5-3.4-4-1.8c-0.7,0.4-0.9,0.8-0.4,1.5C128.6,51.2,129.5,53.2,130.1,55.4z M387.7,53.1
			c1.9-0.9,3-2.9,2.6-5c-0.1-0.9,0-1.9-0.1-2.8c-0.1-0.6,0.3-1.7-0.8-1.7c-0.9-0.1-1.7,0.6-1.8,1.6c0,0,0,0,0,0v0.2
			C387.8,47.9,387.3,50.4,387.7,53.1L387.7,53.1z M368.6,50.4c-4,2.7-4.4,4.2-2.2,7.5c0.2,0.3,0.3,0.9,0.8,0.7
			c0.3-0.2,0.5-0.5,0.5-0.8C368.7,55.4,369,52.9,368.6,50.4z M344.8,55c0.3-1.2,0.6-2.4,1.1-3.6c0.6-1.4,0.4-3-0.6-4.1
			c-0.9-1.3-1.2-0.9-2,0.2C341.3,50.4,343.6,52.4,344.8,55z M252.9,43.4c0.6-2.9,1.4-5.7,2.3-8.5c0.3-1.1-0.3-1.6-1-2.1
			c-0.4-0.3-0.9-0.9-1.4-0.4c-0.5,0.5-0.3,1.3-0.3,1.9C252.6,37.3,252.8,40.4,252.9,43.4z M216.5,41.1c1.3-1.3,0.4-4.6-1.1-5.1
			c-0.6-0.2-0.8,0.2-0.8,0.6c-0.6,2.7-1.4,5.4-0.9,8.2c3-1.8,1.5-4.6,1.8-7C215.8,38.9,216.1,39.9,216.5,41.1z M365.7,51
			c1.5-1,2.9-1.5,2.6-3.4c-0.5-3-1.4-6-2.5-8.9C366.3,42.7,366.2,46.9,365.7,51z M89.6,41.3c1,2.3,1,4.5,3.1,5.7
			c0.6,0.3,1.2,1.3,1.9,0.4c0.6-0.7,0.7-1.6,0.2-2.4C93.4,43.3,91.6,42,89.6,41.3z M150.8,34.5v-1.6c0-0.5,0.1-1.1-0.4-1.2
			s-0.8,0.4-1,0.7c-0.8,1.1-1.6,2.3-2.4,3.5c-0.3,0.4-0.6,0.9,0.2,1.2C150,38.1,151,37.5,150.8,34.5z M37.5,34c-4-0.2-6.3,1.5-8.3,4
			c-0.5,0.5-0.5,1.3,0,1.8c0,0,0,0,0,0c0.4,0.4,0.8,0,1-0.3C32.5,37.4,34.9,35.5,37.5,34z M109.8,51.2c0.7-1.7,1.3-3.2,1.9-4.7
			c0.2-0.6,0.6-1.2-0.1-1.6c-0.9-0.7-2-1.1-3.1-1.3c-0.3,0-0.3,0.4-0.3,0.6C108.7,46.5,108.4,48.9,109.8,51.2z M136.3,55.5
			c0.8-2.6,1.4-4.7,2-6.8c0.2-0.7,1.1-1.6-0.5-2c-1.4-0.3-1.5,0.5-1.8,1.5C135.3,50.5,135.8,52.7,136.3,55.5z M48.3,36.6
			c1,0,1.7-0.1,1.4-1.1s0-2.6-1.3-3.3c-0.5-0.2-3.1,2.1-2.9,2.5C46,35.8,47.1,36.5,48.3,36.6z M399.7,49.2c0.5-2.5,0.5-5.2-0.1-7.7
			c-0.1-0.7-0.6-1.2-1.3-1.1c-0.2,0-0.3,0.1-0.5,0.2c-0.5,0.2-0.7,0.8-0.5,1.3c0.1,0.1,0.2,0.3,0.3,0.4c1.1,0.9,0.8,2.2,1.1,3.3
			C398.9,46.8,399.3,48,399.7,49.2z M80.6,42.8c0.2-0.7,1.2-0.4,0.9-1.1s-0.9-0.5-1.4-0.3c-1.3,0.5-1.5,1.8-1.8,3
			c-0.2,0.6-0.5,1.4,0.2,1.8s0.9-0.3,1.4-0.5c0.7-0.3,1.4-0.6,2-1c0.3-0.1,0.7-0.3,0.7-0.6c-0.1-0.4-0.3-0.7-0.7-0.8L80.6,42.8z"/>
		<path d="M427.3,0.4c4,4.2,7.7,8.6,11,13.4c1.3,1.9,0.3,4.3,0.2,6.5C434.9,13.5,431.5,6.8,427.3,0.4z"/>
		<path d="M438.5,64c0-6.2-0.4-12.4,0-18.5c0.2-4.3-0.5-8.5-0.2-12.7c0.1-1.6,0.4-2.8,2-3.3c1.1-0.4,1.2-1.1,0.7-2.1
			c-0.7-1.5-1.2-3-1.9-4.5c-1.3-2.6-0.6-5.3-0.7-8.4c1.2,1.1,2.3,2.3,3.2,3.7c0.9,0.9,1.6,2,2.3,3.1c2.8,5.5,7.5,8.7,12.9,11.4
			c0.8,0.4,1.1,0.4,1.6-0.4c1.1-2,1.6-3.8-0.2-5.7c-0.7-0.8-1.2-1.6-1.6-2.6c1.1,0.6,2,1.5,2.6,2.5c1,1.1,1.5,1,2.2-0.3
			c1.5-2.9,3.4-5.5,5.6-7.9c-0.3,1.5-1.3,2.7-1.9,4c-0.6,1.4-1.3,2.8-2.1,4.1c-1.6,2.2-0.8,4,0.7,5.8c0.6,0.7,1,0.8,1.7,0.2
			c4.2-3.4,8.7-3.1,13.3-0.9c0.8,0.4,1.7,0.4,2.5,0c0.5-0.3,1.1-0.5,1.7-0.7c4.2-1.4,4.2-1.4,3-5.7c-0.1-0.6-0.3-1.2-0.5-2.3
			c1,1.2,1.7,2.7,2,4.3c0.5,1.9,1.5,2.4,3.2,1.9c0.6-0.1,1.2-0.2,1.8-0.2c-0.5,1-1.4,1-2.1,1.3s-1.6,0.5-1.2,1.5
			c0.4,1,0.1,2.2,1.5,2.5c0.3,0.1,0.3,0.2,0.3,0.3c0.2,2.4,2.1,2.6,3.9,3c0.4,0.1,0.7,0.3,1,0.5c-1.3,0.7-2.5-0.3-3.6,0.1
			c1.3,2.3,3.7,3.7,6.3,3.8c1.1-0.1,1.2-0.4,0.8-1.3c1.9-0.2,2.2-2.2,3.4-3.2c0.8-0.6,1.2-1.6,1.1-2.6c0.4-4.8-1.1-9.3-2-13.9
			c-0.3-1.5-0.5-3-0.5-4.5c0.9,2,1.6,4,2.3,6.1c1.4,4.8,2.2,9.7,2.3,14.7c0,0.4,0,0.8,0.1,1.2c0.1,0.4,0.2,0.9,0.7,0.8
			s0.5-0.6,0.4-1c-0.3-1.8-0.5-3.6-0.8-5.4c-0.2-0.5-0.1-1.1,0.3-1.5c1.2,2,2.2,4.1,3,6.3c0.8,2.2,0.8,2.2,2.5,0.5
			c0.5-0.5,1-1,1.6-1.5c2-1.6,2-1.7-0.2-3.1c-1.5-1-3.1-1.8-4.7-2.9c1.5-0.1,3,0.2,4.3,0.8c3,1.1,5.6,2.9,7.9,5.1
			c0.7,0.7,1.4,1.6,2.6,1s0.5-1.8,0.3-2.7c-0.8-3.7-1.7-7.3-2.3-11c1.3,1.2,1.5,2.9,2.1,4.4c0.9,2.1,1.7,4.3,2.3,6.5
			c0.3,1.5,1.7,2.6,3.2,2.5c2,0.1,4,0.7,5.7,1.8c1.3,0.9,2.3,1,3-0.6c0.2-0.4,0.3-0.9,1.1-0.9c0,1-0.3,2-0.7,2.9
			c-0.3,0.6-0.1,1.3,0.5,1.6c0,0,0,0,0,0c0.1,0,0.1,0.1,0.2,0.1c0.8,0.3,0.7-0.6,1-1c0.5-1.1,1.1-2.1,1.8-3.1c0.1,1.8-1.5,4,1.5,4.9
			c-0.3-3.8-0.8-7.6-1.6-11.3c1.1,0.3,1.2,1.1,1.6,1.7c1.2,2,2.1,4.2,2.7,6.5c0.5,1.9,1.6,2.6,3.3,3.2s2.9,0.6,3.5-1.4
			c0.1-0.3,0.3-0.5,0.6-0.5c0.2,0.9-0.6,1.6-0.5,2.5c2.6-3.2,2.6-4.1-0.2-7c-2.1-2.2-4.6-4-7.3-5.3c-0.4-0.2-1-0.2-1-1
			c2.3,0.1,4.5,0.8,6.5,2c1.1,0.5,2.1,1.2,3.1,1.9c1,0.7,2.1,2.4,3.2,2.1s1.8-1.9,2.7-2.9c1.2-1.3,2.2-2.9,4.2-4
			c-0.4,1.4-1.3,1.9-1.8,2.8c-0.3,0.5-0.7,1-1.1,1.5c-2.8,4-2.8,4-0.3,8.1c0.2,0.3,0.4,0.6,0.5,0.9c0.5,2.3,1.8,2.3,3.7,1.6
			c2.5-0.9,2.6-0.8,0.9-3.1c0.8,0.2,1.5,0.6,2.1,1.2c0.6,0.4,1,0.8,1.7,0.5c0.9-0.6,2.5-0.8,2.6-2c0.1-0.9-1.4-1-2.2-1.4
			c-1.2-0.6-2.6-0.7-4-1.8c2.7-0.1,5.3,0.2,7.9,1c1,0.3,2,0.3,3-0.1c1.4-0.5,2.8-0.8,4.3-0.9c1.1-0.2,2.2-0.8,2.8-1.8
			c1.3-1.7,2.7-3.3,4.2-4.9c0.7-0.6,1-1.6,0.8-2.5c-0.6-3.3-1.1-6.6-1.5-9.9c1.4,3.4,2.4,6.9,3,10.5c0.5,2.4,0.9,4.8,1,7.2
			c-0.1,1.4,0.7,2.6,1.9,3.2c0.5,0.3,1,0.8,1.5,1.1s1.1,1.7,1.9,0.9s2.3-1.6,1.7-3.3c-0.5-1.5-0.7-3-0.8-4.5l1.1,2.5
			c-1.5-6.4-4.3-12.5-8.2-17.8c1.2,0.3,2.1,1.1,2.7,2.1c3.2,4.3,5.8,8.9,7.7,13.9c0.7,1.8,1.2,3.1,3.4,1.9c0.1,0.3,0.2,0.4,0.2,0.5
			c-0.4,1-2.2,1.1-1.8,2.5c0.6,2,0.8,4.1,1.9,5.9c0.4,0.7,1.3,1,2,0.7c0.1,0,0.2-0.1,0.3-0.2c0.6-0.6,0.7-1.5,0.2-2.2l-0.2-0.2
			c-0.5-0.5-0.8-1-1.3-1.5c0.7-0.4,1,0.1,1.3,0.4c0.8,0.5,1.3,0.5,1.8-0.4c0-0.1,0.1-0.1,0.1-0.2c2.6-4.1,2.5-4.1-0.3-8.1
			c-0.9-0.9-1.6-2-2-3.2c1.8,1,2.8,2.4,4,3.5s2.3,3,3.9,0.3l0.3,0.6c-0.2,0.8-1.5,1.8-0.3,2.4c0.9,0.5,1.2-0.9,1.7-1.5
			c2.4-3.3,5.1-6.1,9.4-6.8c1.3-0.2,1.1-0.8,0.7-1.7c-0.8-1.4-1.5-2.9-2-4.5c1.5,1.4,2.3,3.3,3.4,4.9c0.3,0.4,0.5,1.1,1.1,1.1
			c0.8,0,0.9-0.8,1.1-1.3c0.8-2.1,1.8-4.1,2.9-6l0.5,0.2c-0.3,2-0.7,3.9-1.2,5.8c-0.8,2.2,0.9,2.4,2.2,3.1s2.2,0.1,2.6-1.4
			c1.1,2.6,2.4,4.8,4.7,6.3c0.7,0.4,1.3,1.6,1.7-0.3c0.1-0.5,1.2-0.8,1.7-1.5c1.6-2.3,1.7-2.3-0.5-3.8c0.5-0.5,1-0.2,1.5-0.1
			c1.1,0.2,2.2-0.2,2.8-1.2c1.3-1.7,2.6-3.2,4.1-4.7c-0.4,1.8-1.6,3.1-2.6,4.6c-0.8,1.2-0.9,1.8,0.8,2.3c1.9,0.6,3.1,0.4,4.2-1.4
			c0.7-1.1,1.9-1.8,3.2-2c-0.9,1.3-1.6,2.3-2.3,3.4c-0.3,0.4-0.7,0.9-0.3,1.4c0.4,0.4,1.1,0.7,1.7,0.6c0.7,0,0.7-0.7,0.8-1.2
			c0.1-0.9,0.4-1.8,0.9-2.5c0.1,0.2,0.3,0.3,0.3,0.5c0.1,1.3-0.8,3,0.1,3.9c1.4,1.2,3,2.2,4.7,3.1c1.1,0.6,1.2-0.2,1.4-1
			c0.7-3.9,1.3-7.7,2-11.5c0.1-0.9,0.4-1.7,0.7-2.5c0.1,5.7-1.2,11.4-1.1,17.2l0.7,0.1c0.3-2.3,0.5-4.6,0.8-7.2
			c0.9,0.7,0.7,1.4,0.7,2.1c0.1,2.2-0.1,4.5,0.4,6.6c0.1,0.5,0.2,1.2,0.9,1.1c0.5,0,0.5-0.7,0.6-1.2c0.7-3,1.6-6,2.8-8.8
			c0.7-1.7,0-3.2-0.2-4.7s-0.5-2.7-0.7-4.1c1.3,1.5,1.1,3.6,2.3,5.7c2.4-4.9,5.5-9.5,9.2-13.6c-0.6,1.8-1.5,3.6-2.7,5.1
			c-2.6,3.7-3.9,7.9-5.2,12.2c-0.2,0.7-0.2,1.5,0,2.2c0.5,2.2,0.9,4.5,1.4,6.7c0.1,0.6,0.3,1.4,1.2,1.4s1.2-0.5,1.5-1.1
			c1.8-3.6,3.5-7.2,5.3-10.8c0.6-1.2,1.3-2.4,2-3.5c1.4-2.2,2.8-4.4,2.2-7.5c0.9,0.7,0.2,1.6,1.1,2.1c2.8-3.6,5.5-7.4,8.5-10.9
			c3-3.5,6.4-6.7,10-9.6l-5,5.9c-5.2,6.2-9.4,13.1-12.5,20.6c-1.1,2.7-1.1,2.7,1.7,3.4c3.5,0.9,3.5,0.9,3.6-2.7
			c-0.1-1.1,0-2.2,0.3-3.2c1,2,0.4,4,0.9,5.7c0.1,0.5-0.1,1.2,0.5,1.5c0.8,0.3,0.9-0.7,1.3-1c1.1-0.9,1.3-2.5,0.5-3.7
			c-0.6-1.2-1.3-2.4-2.1-3.8c2,0.1,2.7,1.5,3.4,2.7s1.2,1,1.9,0.1c2.2-2.8,4.9-5.2,8-7c2.3-1.4,5-1.8,7.6-1c1.4,0.5,1.9-0.1,2.4-1.3
			c1.6-3.7,3.6-7.2,5.8-10.6c0.3,1.1-0.4,2-0.8,2.9c-1.3,3-2.4,6.1-3.3,9.3c-0.4,1-0.2,2.2,0.5,3c2.3,2.7,4,5.8,5.1,9.1
			c0.2,1.1,1.2,1.9,2.3,1.8c0.2,0,0.4-0.1,0.6-0.2c1.1-0.4,2.3-0.6,3.5-0.7c-1,1.2-2.6,1.3-3.8,1.9c-0.8,0.4-1.3,0.8-1,1.8
			c0.8,2.6,1.4,5.2,2.3,8.3c0.6-1.9,1-3.3,1.5-4.6c0.3-1,0.7-2,1.1-3c1.7-4.1,4.2-8.1,2-12.9c0.8,0.6,1.3,1.5,1.3,2.5
			c1,3.6,2,7.1,3,10.7c0.3,1.1,0.8,1.5,1.8,0.8c0.3-0.2,0.7-0.4,1.1-0.5c1.6-0.4,2.1-1.3,1.3-2.8c-0.1-0.4-0.2-0.9-0.2-1.3
			c1.4,0.5,1.1,2.8,2.8,2.5c1.3-0.2,2.5-0.7,3.7-1c2.2-0.5,0.6-2.4,1.5-3.9c0.9,4.3,3.6,2.8,6.1,2.5c3.1-0.4,6.2-0.8,9.3-1
			c1.3-0.1,1.9-0.5,2.2-1.8c0.6-2.8,1.3-5.5,2-8.2c0.2-1.2,0.7-2.3,1.5-3.2c-0.6,3.3-1.1,6.3-1.7,9.2c-0.6,3.6-0.6,3.6,3,3.7
			c0.6,0,1.2,0.1,2.3,0.1c-1.3,0.7-2.7,1-4.1,1.1c-1.3,0.2-1.9,0.8-1.9,2.1v5.5c0,0.5-0.3,1.3,0.8,1.2c0.4,0,0.5,0.3,0.2,0.5
			c-1.7,1.4-0.6,3.1-0.5,4.7c0.1,1.5,0.4,3.1,0.7,4.6c0.1,0.7,0.4,1,1,0.3c1.7-1.5,2-3.9,0.9-5.8c1,0,2,1.2,3-0.2
			c1.9-2.5,2-2.4,1.4-4.3c1.2,1.1,2,0.8,3.1,0.1c0.9-0.5,1.5-1.5,1.4-2.6c-0.2-2.1-0.1-4.2,0.3-6.2c1,1.9,0.6,3.7,0.9,5.3
			c0.3,1.4,0.6,1.8,2.1,1.4c2-0.7,4.2-1.1,6.3-1.3c0.4,0,1-0.3,1.3,0.3c-0.5,0.6-1.3,1-2.1,1.1c-1.3,0.3-2.3,1.3-2.7,2.5
			c-0.7,1.6,0.5,6.1,1.9,7c0.8,0.5,1.1-0.3,1.1-0.7c0.1-1.3,1.2-1.7,1.9-2.4c2.1-2.3,4-4.7,6.3-6.8c0.6-0.6,0.5-1.3,0.5-2.1
			c0-2.8-0.8-5.5-1.1-8.4c1.5,1.9,1.8,4.2,2.3,6.4c0.4,1.9,1,1.7,2.1,0.5c0.5-0.7,1.3-1.2,2.1-1.5c-0.2,1.3-1.3,1.9-1.9,2.7
			c-0.5,0.6-0.9,1.1-0.3,1.9c1.8,2.6,3.3,5.4,4.7,8.2c-0.5-3.5-0.7-7-0.7-10.5c2.3,4.1,4.1,8.5,5.5,13c1-1.2,1.6-2.7,1.9-4.3
			c1-4.4,2.6-8.5,5.9-11.7c0.7-0.9,1.7-1.4,2.8-1.5c-3.6,3.9-5.6,8.9-5.9,14.2c1.9-0.6,1.5-1.9,1.5-3.1c1.4,0.8,3.4-0.7,3.8-2.7
			c0.4-2.3,1-4.6,1.7-6.8c0.7,1.1,0.1,2.1,0.2,3.2c0.1,0.8-0.7,2.1,0.5,2.1c1.2-0.1,2.1-1.2,2-2.4c-0.3-1.1-0.3-2.3-0.1-3.5
			c1.1,2.4,1.1,4.8,2,7.5c1-2.9,1.7-5.4,2.6-7.8s0.9-2.4,0-4.5c3.4,2.1,1.5-1.9,2.9-2.2c0,0.1,0.2,0.3,0.1,0.5
			c-1.6,4.9,2.5,7.4,4.7,10.6c0.8,1.3,2.8,0.9,4.4,0.9c0.7,0,0.8-0.9,0.9-1.4c0.1-0.6-0.3-1.2-0.9-1.4c-2.2-0.9-4.3-2-6.4-3.2
			c2.1,0.5,4.2,0.8,6.3,1.4c1.4,0.4,2,0.1,2.3-1.3c0.6-2.4,1.3-4.8,2-7.2c0.2-0.9,0.1-1.9-0.5-2.7c-0.6-1-1.1-2.1-1.5-3.2
			c3.5,3.7,5.9,8.1,8.3,12.7c1-0.8,0.9-2.1,2.1-2.8c0.1,1.7-0.6,3.1-0.8,5c1.2-0.6,2.1-1.1,3.1-1.6c2.4-1.5,5-2.5,7.7-3
			c3.3-0.4,6.6,0.5,9.3,2.5v31.9c0,1-0.2,1.4-1.3,1.2h-0.6L438.5,64z M718.3,30c1.9-5.1,0.1-7.6-4.6-7c-3.7,0.5-6.3,2.8-8.9,5.2
			c-0.2,0.2-0.3,0.4-0.4,0.7c0.3,2,0.7,4,1.2,5.9c0.3,1,1.5,1.2,2.3,1.9c1.3,1.2,1.6,0.5,1.9-0.8c0.6-2.4,1.3-4.8,2.1-7.4
			c0.3,0.3,0.4,0.8,0.2,1.2c-0.5,2.6-1,5.1-1.5,7.7c-0.1,0.7-0.4,1.5,0.7,1.8c0.5,0.1,6.4-2.8,6.6-3.3c0.2-0.3,0.3-0.6,0.3-1
			c0.2-1.9,0.3-3.7-1.1-5.3c-0.5-0.7-1-1.4-1.4-2.1l0.4-0.3L718.3,30z M759.1,36.1c3.5,1.4,6.5,3.9,8.4,7.2c0.3,0.6,0.5,1.7,1.5,1.4
			c1-0.3,1.8-1.1,2-2.1c0.3-2.6,0.5-5.3,0.8-7.9c0.2-1.3-0.4-1.7-1.6-1.5C766.4,33.8,762.7,34.8,759.1,36.1L759.1,36.1z M872.6,34.1
			c-0.7-0.8-1.7-1.3-2.8-1.4c-3.1-0.4-6.3,0.3-9,1.8c-0.5,0.2-1.2,0.3-1.2,1c0,0.7,0.5,1.3,1.2,1.4c2,0.7,3.9,1.6,5.7,2.6
			c1,0.6,1.6,0.3,2.1-0.6c0.8-1.4,1.8-2.7,3-3.8C872,34.8,872.3,34.5,872.6,34.1z M489.5,42.9c0-2-2-4.2-3.9-4.2s-4.5,3.2-4.4,5.6
			s2.5,1.6,3.8,2.1S489.5,44.1,489.5,42.9z M649.6,39.5c-0.4,1.3-0.9,2.5-1.3,3.7c-0.1,0.4-0.5,1,0.1,1.3s0.7-0.5,0.9-0.8
			c1.5-2.3,1.4-5.1,2.4-7.6s0.6-3.1-1.8-4.4c-0.9-0.5-1.5-0.4-2,0.5c-0.6,1.3-1.3,2.6-2.1,3.9c-1.4,1.7,0.4,2.4,1.2,3.5
			S648.5,40,649.6,39.5L649.6,39.5z M754.4,52.7c0.6-2.2,2.6-4.5-0.6-6.7c2.5,0.6,2.3-0.7,2.2-2s-0.1-2.5-0.3-3.8
			c-0.1-0.8,0.4-2.1-0.7-2.3c-1.3-0.1-2.6,0.7-3.1,1.9c-0.3,0.8-0.3,1.6,0,2.4C753,45.6,753.8,49.1,754.4,52.7L754.4,52.7z
			 M852.1,24.7c-0.3,1.6-0.6,3.3-0.9,4.9c-0.7,4-0.7,3.9,3.3,5c1.6,0.5,2.1-0.2,1.7-1.6C855.3,30,853.9,27.2,852.1,24.7z
			 M627.2,34.7c0.2-0.2,0.3-0.6,0-0.9c0,0,0,0,0,0c-0.3-0.3-0.7,0-0.9,0.2c-0.5,0.4-1.1,0.8-1.6,1.2c-2.2,2.1-3.8,4.7-4.8,7.6
			c-0.2,0.5-0.1,1.1,0.2,1.5c0.3,0.4,0.6,0.2,0.8,0C623.8,41.7,627.1,39.3,627.2,34.7z M759.9,48.3c0.9-1,1.7-2,2.4-3.1
			c1.1-1.8-1.8-1.6-1.7-3c0.7-0.3,1,0.7,1.7,0.2c-0.5-2-1.7-3.8-3.3-5.1c-0.4-0.3-0.8-0.7-1.2-0.4s-0.1,0.8,0,1.1
			c0.7,2.8,1.2,5.6,1.3,8.5C759.1,47.2,759.4,47.8,759.9,48.3z M583.6,40.6c-1,0.2-1.2,1.3-1.3,2.3s2.5,3.9,3.2,3.9s3.8-2.3,3.8-2.9
			C589.3,42.6,586,40.5,583.6,40.6z M639.3,40.6c-0.1-0.7-0.2-1.3-0.3-2c-0.2-1-0.4-2.1-0.7-3.1c-0.1-1-1-1.7-2-1.6c0,0,0,0,0,0
			c-1.5,0.2-0.4,0.9-0.2,1.4c0,0.1-0.4,0.4-0.7,0.6c-1.3,1.3-1.5,3.3-0.5,4.8c0.9,1.3,2.3,1,3.5,1C639.3,41.7,639.4,41.2,639.3,40.6
			z M803.3,40.7c-0.9,1.3-1.9,2.5-2.8,3.8c-2.3,3.4-2.3,3.4,0.7,5.9c0.1,0.1,0.2,0,0.4,0.1C802.9,47.4,803.5,44.1,803.3,40.7
			L803.3,40.7z M519.5,57c1.7-3.2,2.6-6.8,2.5-10.4c0-0.8-0.5-0.8-1.1-0.4c-1.6,1.1-2.5,3-2.3,5C518.9,52.9,519.2,54.7,519.5,57z
			 M568.8,55.9c1.3-2.5,2.3-4.5,1.6-6.8c-0.2-0.8-0.1-2-1.2-2.1c-1.2,0-2.3,0.4-3.2,1.1c-0.4,0.3-0.3,0.7,0,1.1
			C567.5,51.2,568.4,53.5,568.8,55.9L568.8,55.9z M827.7,52.9c2.4-1.6,2.6-1.9,2.6-4.3c0-1.1,0-2.3-0.1-3.4
			c-0.1-0.6,0.3-1.7-0.8-1.7c-0.9-0.1-1.7,0.6-1.8,1.5v0.1C827.8,47.7,827.3,50.3,827.7,52.9z M808.6,50.4c-4,2.7-4.4,4.2-2.2,7.5
			c0.2,0.3,0.3,0.8,0.8,0.7s0.5-0.6,0.6-1C808.7,55.3,809,52.8,808.6,50.4L808.6,50.4z M784.8,54.9c0.3-1.3,0.7-2.6,1.1-3.8
			c0.8-1.7-0.1-3-1-4.3c-0.3-0.4-0.8-0.8-1.1-0.3c-0.8,1.3-2,2.6-1.3,4.2S784,53.6,784.8,54.9z M692.5,43.3c0.6-2.8,1.3-5.6,2.2-8.3
			c0.4-0.8,0-1.8-0.8-2.2c-0.5-0.3-1-1-1.6-0.6s-0.3,1.4-0.3,2.1C692.2,37.3,692.4,40.3,692.5,43.3z M655.9,41
			c1.1-1.4,0.1-4.8-1.4-5.1c-0.6-0.1-0.7,0.4-0.8,0.7c-0.5,2.7-1.3,5.3-0.8,8.2c3-1.8,1.6-4.6,1.5-7.3C655.3,38.7,655,40,655.9,41z
			 M805.7,50.7c2.6-1.5,2.9-1.8,2.6-3.3c-0.5-3-1.4-6-2.5-8.8C806.3,42.6,806.3,46.7,805.7,50.7z M528.4,41.2
			c0.9,2.3,0.9,4.5,2.9,5.6c0.6,0.3,1.2,1.3,1.9,0.5c0.8-0.7,0.8-1.9,0.1-2.7c0,0,0,0,0,0l0,0C531.9,43.1,530.3,41.9,528.4,41.2z
			 M589.7,34.3v-1.4c0-0.5,0.1-1.2-0.5-1.4s-0.9,0.5-1.2,0.9c-0.8,1.1-1.5,2.2-2.3,3.3c-0.3,0.5-0.6,0.9,0.3,1.2
			C588.9,37.9,589.8,37.4,589.7,34.3z M475.4,34c-3.4-0.3-5.8,1.3-7.7,3.8c-0.5,0.5-0.5,1.3,0,1.8c0,0,0,0,0,0c0.4,0.4,0.8,0,1-0.3
			C470.8,37.4,473,35.6,475.4,34z M547,43.5c0.5,2.5,0.2,5.1,1.6,7.6c0.8-1.8,1.4-3.4,2.1-5c0.3-0.5,0.1-1.1-0.3-1.4
			c-0.1,0-0.1-0.1-0.2-0.1C549.2,44.1,548.1,43.7,547,43.5z M575.1,55.3c0.8-2.6,1.4-4.7,2-6.9c0.2-0.7,1-1.5-0.4-1.9
			s-1.6,0.4-1.9,1.4C574.1,50.3,574.6,52.6,575.1,55.3z M486.6,36.4c0.8,0,1.7,0,1.4-1c-0.4-1.2,0.2-3.1-1.4-3.3
			c-1.3,0.1-2.4,1-2.7,2.3C483.9,35.8,485.5,36.2,486.6,36.4z M839.6,49.1c0.5-2.5,0.5-5.2-0.1-7.7c-0.1-0.6-0.4-1-1-1
			c-0.4,0-0.9-0.1-1.1,0.3c-0.4,0.5-0.3,1.2,0.1,1.6c1,0.7,0.7,1.8,1,2.7C838.8,46.4,839.3,47.7,839.6,49.1z M519.4,42.6
			c0-0.7,1.3-0.3,0.8-1.1c-0.3-0.5-0.8-0.4-1.3-0.2c-1.1,0.3-2.5,3.5-2.1,4.5c0.1,0.3,0.3,0.5,0.6,0.4c1.3-0.6,2.5-1.3,3.7-2
			c0.2-0.2,0.2-0.4,0-0.6c0,0-0.1-0.1-0.1-0.1C520.6,43.2,520.1,43,519.4,42.6L519.4,42.6z"/>
		<path d="M878,14.9c2.5,1.8,4,4.6,6,6.8c1.8,2.1,3.5,4.2,5.1,6.5c0.4,0.6,0.9,1,1.5,1.3c2.6,0.9,5.1,2.1,7.5,3.6
			c1,0.7,1.7,0.6,2.3-0.6c1-1.9,1.2-3.5-0.3-5.1c-0.8-0.8-1.4-1.8-2.3-2.9c1.7,0.3,2.3,1.5,3.1,2.4c1.7,1.7,1.9,1.8,3-0.3
			c1.5-2.9,3.8-5.1,5.7-7.7l0.4,0.3c-1,1.9-2,3.7-3.2,5.5c-0.7,1.1-1.3,2.2-1.9,3.3c-0.5,1-1,1.9-0.3,3c1.8,2.9,1.9,2.9,4.8,1.2
			c4.1-2.3,8.5-2,12.7-0.3c1.5,0.7,3.2,0.7,4.7,0c0.6-0.2,1.1-0.4,1.7-0.5c3.7-1,3.7-1,2.7-4.8c-0.3-0.8-0.3-1.7-0.2-2.5
			c0.7,1.4,1.2,2.8,1.7,4.2c0.4,1.6,1.2,2,2.8,1.6c0.9-0.4,1.9-0.4,2.8-0.2c-0.3,0.8-1,0.7-1.5,0.9c-2.2,0.7-3,3.3-1,4.4
			c1.3,0.7,0.7,2.4,2.3,2.5c1.5,0.2,3,0.6,4.5,1.1c-1.9,0.8-3.3-0.2-5.1,0.2c3,1.8,5,5.1,9,3.3c0.1-0.2-0.1-0.3-0.3-0.4
			s-0.3-0.2-0.5-0.3c3.3-1.7,5.3-4,5-8c-0.2-4-0.8-8-1.9-11.9c-0.4-1.5-0.7-3-0.8-4.5c2.3,3.9,3.2,8.3,4,12.6
			c0.5,2.8,0.8,5.7,0.9,8.6c0,0.7-0.1,1.7,1,1.6s0.5-1.1,0.5-1.6c-0.2-2-0.5-4-0.9-6.3c1.5,1.4,1.9,3,2.6,4.3s1,2.9,2,3.4
			c1.3,0.8,2-1.3,3-1.9c3.1-1.9,3-2.4-0.3-4c-1.5-0.8-3.1-1.5-5-2.5c0.9-0.2,1.9-0.2,2.8,0.1c4.4,1,8.4,3.1,11.7,6.1
			c0.8,0.7,1.7,1.2,2.7,0.7c1.3-0.6,0.6-1.7,0.3-2.5c-1.2-3.6-2.1-7.4-2.6-11.2c0.9,1.8,1.9,3.6,2.7,5.5s1.5,4,2.2,6
			c0.2,0.9,1,1.6,2,1.7c3.1,0.1,6.2,1,8.9,2.5c0.4,0.3,0.9,0.3,1.2-0.1c0,0,0.1-0.1,0.1-0.1l0.1-0.1c0.6-0.8,1.3-1.5,2-2.1
			c0.1,1.1-0.1,2.1-0.5,3.1c-0.3,0.6-0.2,1.3,0.4,1.7c0.1,0,0.1,0,0.1,0.1c0.9,0.4,0.9-0.6,1.1-1c0.5-1.2,1.3-2.3,2.3-3.2
			c0,2-1.8,4.3,1.4,5.1c-0.2-3.7-0.9-7.4-1.3-11.2c2,2.6,3.5,5.4,4.6,8.5c0.2,0.8,0.2,1.8,1.1,2c1.6,0.6,3.2,1,4.9,1.3
			c1.2,0.1,1-1.9,2.3-2.5l-0.7,2.7c0.2-0.1,0.3-0.1,0.4-0.2c2.3-4,2-5.2-1.7-8c-2.6-1.9-5.4-3.6-8.3-5.1c1.9,0,3.7,0.4,5.4,1.1
			c2.8,1.1,5.5,2.6,7.9,4.4c0.5,0.5,1.2,0.5,1.7,0c0,0,0.1-0.1,0.1-0.1c2.3-2,3.8-4.8,6.8-6.3c-0.3,1-0.9,1.8-1.7,2.4
			c-1.6,1.6-2.9,3.4-3.9,5.4c-0.4,0.5-0.4,1.1,0,1.6c1.2,1.4,2.2,2.9,3,4.5c0.3,1,1.3,1.5,2.2,1.2c0,0,0,0,0.1,0
			c0.2-0.1,0.3-0.1,0.5-0.2c0.3-0.1,0.7-0.2,1-0.3c2.9-0.7,2.9-0.7,1.4-3.3c2.5,2.9,4.8,2,7.1-0.2c-2.1-1.5-4.7-1.6-6.8-3
			c3-0.2,6,0.2,8.9,1.1c0.9,0.3,1.9,0.1,2.7-0.4c1.3-0.8,3.1-0.6,4.7-0.9c1.6-0.1,3-1,3.8-2.4c1.1-1.8,2.9-2.8,4.2-4.3
			c0.7-0.6,1-1.6,0.8-2.5c-0.6-3.3-1.1-6.6-1.7-10c0.8,0.4,0.8,1,0.9,1.6c1.6,5.4,3.5,10.7,3.8,16.4c0.1,1.4,3.5,5,4.8,5.2
			s3-2,2.7-3.3c-0.2-0.8-0.4-1.6-0.6-2.3c-0.2-0.7-0.3-1.5-0.2-2.3l1.2,2.4c-1.5-6.5-5-12-8.2-17.8c1,0.9,1.9,1.8,2.7,2.9
			c2.2,3.2,4.7,6.1,6.1,9.7c0.7,1.8,2.2,3.2,2.7,5.2c0.2,0.7,0.7,0.8,1.3,0.5c0.6-0.3,1.3-0.4,2-0.3v0.5c-0.6,0.9-2.5,0.8-2.1,2.4
			c0.5,2.2,1,4.5,2.7,6.2c0.5,0.5,1.4,1,2.1,0.1c0.5-0.7,0.9-1.5-0.2-2.2c-0.5-0.4-1-0.9-1.3-1.5c0.7-0.5,1,0.1,1.3,0.3
			c1.1,0.8,1.8,0.4,2.4-0.7c0.7-1.4,2.6-2.9,2.3-3.8c-0.6-1.9-2.3-3.6-3.6-5.3c-0.4-0.6-1.2-0.9-1.3-1.9c0.7,0.1,1.4,0.4,1.9,1
			c0.6,0.5,1.1,1.2,1.8,1.7c1.6,1.4,3.1,3.5,5.4,0.9c0.5,1.1-0.4,1.2-0.7,1.7c-0.4,0.4-0.4,1,0,1.4c0,0,0.1,0.1,0.1,0.1l0.1,0.1
			c0.7,0.5,1-0.1,1.3-0.5c1.1-1.6,2.4-3.1,3.8-4.4c2-1.9,4.6-3.1,7.3-3.6c1.5-0.2,1.3-0.8,0.9-1.9c-0.6-1.5-2-2.7-2.4-4.6
			c2,1.1,2.6,3.1,3.7,4.6c0.4,0.6,0.7,1.6,1.6,1.6s1.1-1,1.4-1.8c0.9-2,1.6-4,3.5-5.5c-0.3,2.2-0.4,4.4-1.3,6.4
			c-0.5,1-0.2,1.5,0.8,1.8c0.5,0.1,0.9,0.3,1.3,0.5c1.5,0.8,2.7,1,3.4-1.3c0.9,2.6,2.7,4.8,5,6.2c0.8,0.5,1.4,2,2.3-0.2
			c0.6-0.9,1.4-1.7,2.2-2.4c1.6-1.4,1.1-2.1-0.7-2.4c-0.2,0-0.3-0.2-0.4-0.4c0.1-0.1,0.1-0.2,0.2-0.3c2.8,0.9,4.4-0.7,6-2.5
			c1-1.2,2-2.3,3-3.4l0.4,0.3c-1.1,1.6-2.2,3.3-3.3,4.9c-0.7,1-0.8,1.4,0.6,1.8c2.2,0.7,4,0.9,5.3-1.5c0.5-1,1.8-1.3,3.2-1.8
			c-0.5,1.2-1.3,2.3-2.3,3.2c-0.4,0.4-0.8,0.9-0.6,1.4c0.4,0.8,1.3,0.6,2,0.8s0.9-0.5,1-1c0.1-1,0.4-2,1-2.8c0.6,1.1,0.1,2.1,0.1,3
			c-0.2,1,0.4,2,1.4,2.3c1.4,0.6,2.7,1.3,3.9,2.1c1.2,0.7,1.6,0.4,1.8-0.9c0.8-4.4,1.8-8.7,2.7-13c0-0.4,0.2-0.7,0.4-1
			c0.1,5.8-1.3,11.4-1.2,17.2l0.7,0.1c0.2-2.3,0.5-4.6,0.8-7.2c0.9,0.7,0.7,1.4,0.7,2.1c0.1,2.1,0.2,4.2,0.3,6.2
			c0.1,0.7,0.3,1.6,1.2,1.6s0.7-0.9,0.8-1.4c0.6-2.9,1.6-5.7,3-8.3c1.3-2.1,0.2-4.3-0.4-6.4c-0.3-1.1-0.6-2.1-0.8-3.2
			c2.1,1.8,1.7,4.1,2.8,6c3.2-4.6,5.8-9.3,9.8-13.1c-0.9,1.7-1.9,3.4-2.9,5c-1.9,2.7-2.9,5.7-4.2,8.7c-0.8,1.8-1.8,3.4-1.3,5.5
			c0.6,2.3,1.6,4.5,2,7c0.2,1.3,1.4,1.4,2.2,0.4c0.5-0.6,0.9-1.2,1.2-1.9c2-5.1,4.7-10,8-14.4c1.2-1.8,1.7-3.9,1.5-6
			c0.6,0.1,0.4,0.5,0.5,0.8s-0.1,1.1,0.5,1.2s0.9-0.5,1.2-0.9c5.2-7.2,11.6-13.2,18.2-19.1c0.4-0.5,1-0.7,1.6-0.8
			c-1.5,1.7-2.9,3.3-4.4,4.9c-4.2,4.3-7.9,9.1-11.1,14.2c-1.8,2.9-3.3,6-4.6,9.1c-0.4,1.1-0.1,1.3,0.9,1.6c5.2,1.4,5.2,1.4,5.5-3.9
			c-0.1-0.6,0.1-1.2,0.5-1.6c0.8,2.1,0.3,4.2,1.2,6.1c0.2,0.3,0,0.9,0.4,1s0.7-0.5,1-0.8c1.8-1.5,1.2-3.2,0.3-4.9
			c-0.5-0.9-1-1.7-1.8-3c1.7,0.3,3.1,1.4,3.9,2.9c0.8,1.2,1.3,0.8,2,0c2.9-2.9,5.9-5.7,9.8-7.3c2.3-1.1,5-1.3,7.5-0.6
			c1.5,0.5,2-0.2,2.8-1.4c2.1-3.4,3.6-7.1,6.2-10.1l0.9-0.6c-0.4,1.2-0.9,2.4-1.5,3.5c-1.8,2.8-2.6,6-3.6,9.1
			c-0.4,1-0.2,2.1,0.6,2.8c2.4,2.6,4.3,5.6,5.5,8.9c0.3,1.4,1.7,2.3,3,2c0.2,0,0.4-0.1,0.6-0.2c1.2-0.4,2.4-0.5,3.6-0.5
			c-0.9,0.8-2,1.3-3.2,1.4c-1.7,0.4-2.5,1.2-1.7,3.1c0.8,2.3,1.4,4.7,1.9,7.1c0.3-0.1,0.5-0.1,0.5-0.2c1.4-4.7,3.6-9.1,5.6-13.6
			c0.6-1.4,0.1-2.8-0.2-4.2c-0.1-0.8-0.3-1.6-0.4-2.5c0.8,0.2,0.8,0.8,1,1.3c1.2,3.9,2.5,7.8,3.7,11.7c0.4,1.4,1.1,1.7,2.3,1.1
			c1-0.5,2.3-0.6,2.9-1.4s-0.8-1.8-0.5-2.9h0.2c1.7,3.3,4.3,2.1,6.9,1.4c1.5-0.4,2.3-0.9,1.4-2.5c-0.2-0.4-0.4-0.8,0-1.1
			s0.9,0.2,1,0.7c0.6,2.3,2.1,2.1,3.9,1.8c4-0.7,8.1-1.1,12.2-1.3c1,0.1,2-0.5,2.3-1.5c1.1-2.6,1.4-5.3,2.2-8c0.3-1.4,0.9-2.8,1.7-4
			c-0.6,3.5-1.2,6.5-1.7,9.5c-0.6,3.4-0.5,3.5,2.8,3.5c0.9,0,1.9,0,2.8,0.1c-1.4,0.7-2.9,1.1-4.5,1.2c-1.2,0.2-1.8,0.7-1.8,2V40
			c0,0.5-0.2,1.2,0.7,1.1c0.6,0,0.6,0.3,0.3,0.6c-1.3,1-0.7,2.3-0.6,3.5c0.3,2.1,0.6,4.2,1,6.4c2.9-1.6,3.6-3.6,2.4-6.1
			c2,0.6,4.2-0.6,4.8-2.6c0.2-0.6,0.2-1.3,0.1-1.9c0.8,0.8,1.6,1.2,2.6,0.5s2.3-1.3,2.1-3.1c-0.1-1.7-0.1-3.5,0-5.2
			c0.1-0.4,0.2-0.8,0.4-1.1c0.7,2.2,0.5,4.2,1.2,6c0.4,1,0.7,1.2,1.7,1c1.8-0.5,3.6-0.9,5.5-1.2c1.1-0.1,2.3-0.1,3.4,0
			c-0.7,0.7-1.6,1.2-2.6,1.4c-3.1,1-4.2,3.8-2.5,6.6c0.4,0.6,0.7,1.3,1.1,1.9s0.6,1.2,1.3,1.1c0.6-0.1,1.1-0.7,1.1-1.3
			c-0.1-1,0.7-1,1.2-1.5c2.8-2.3,5.4-4.9,7.8-7.6c1.1-1.3,0.2-3.5,0-5.3c-0.2-1.6-0.6-3.1-0.7-4.8c1.2,2.1,2.1,4.4,2.7,6.7
			c0.3,1.5,0.8,1.5,1.8,0.5c0.8-0.8,1.7-1.4,2.8-1.8c-0.2,1.4-1.2,1.7-2,2.3c-1.1,0.9-1.4,1.8-0.3,2.9c2.2,2.2,3.2,5.2,5.1,7.7
			c-0.1-3.4-1.5-6.7-0.8-10.6c2.4,4.2,4.5,8.6,6.2,13.1c1.2-1.8,2-3.8,2.6-5.9c0.9-3.8,2.9-7.3,5.8-10c0.9-0.9,2.1-1.5,3.3-1.8
			c0.1,0.6-0.1,1.2-0.7,1.5c-3.1,2.4-3.8,6.1-5.4,9.3c-0.2,0.4-0.3,0.9-0.3,1.4c0,0.7-0.6,1.9,0.5,2c0.9,0.1,1.3-1,1.2-2
			c0-0.3-0.1-0.5-0.1-0.8c1.4,0.5,3.8-1.1,4.2-2.9s0.6-3.3,1-4.9c0.2-0.7,0.1-1.5,1-2c0.3,1.2-0.2,2.3-0.1,3.4
			c0.1,0.8-0.6,2.2,0.6,2.1c1.3-0.1,2.3-1.1,2.3-2.4c0-1.1-0.5-2.2-0.1-3.5c0.7,1.8,1.2,3.7,1.5,5.6c0.1,0.5,0.2,1.2,0.8,1.2
			s0.5-0.7,0.7-1.1c0.9-2.7,1.4-5.6,3.1-8c0.8-1.1-0.8-1.6-1.1-2.5c0.9-0.8,1.6,1.5,2.3,0.3c0.4-0.9,0.6-1.8,0.7-2.7
			c0.1,0.1,0.3,0.2,0.4,0.3c-1.8,5.2,2.9,7.6,5.2,10.9c0.9,1.4,3.3,0.9,5,0.9c0.7,0,0.8-0.8,1-1.4c0.2-0.6-0.2-1.3-0.8-1.5
			c-1.6-0.6-3.1-1.2-4.7-1.8c-1-0.2-1.9-0.7-2.6-1.5c2.4,0.5,4.8,0.8,7.1,1.5c1.3,0.4,1.8,0,2.4-1.2c1-2.4,1.8-4.9,2.4-7.5
			c0.5-1.7-0.8-2.7-1.5-4c-0.3-0.6-1.2-0.8-1-2.1c4.1,3.9,6.6,8.6,9.5,13.1c1-0.7,0.9-2,2-2.8c0.3,1.7-0.7,3.1-0.6,5
			c7.1-4.3,14.3-7,22.1-2.1v31.9c0,1-0.2,1.4-1.3,1.2H880.8c-1.5,0-1.9-0.3-1.9-1.9c0.1-10.6,0-21.1,0-31.7c0.4-0.3,0.9-0.6,1.4-0.8
			c1.8-0.5,2-1.4,1.3-3.1s-1.9-3.4-2.7-5L878,14.9z M1182,29.3l0.5,0.1c-0.6,2.8-1.1,5.6-1.6,8.5c-0.3,1.8,0.1,2.2,1.7,1.5
			c1.2-0.5,2.3-1,3.5-1.5c3.2-1.3,3.4-1.7,3.2-5c-0.2-1.3-0.8-2.4-1.8-3.3c-0.4-0.5-1-0.9-1.1-1.8c1.4,0.3,2,1.5,3,2.3
			c1.7-4.5,0.7-6.3-3.6-6.6c-0.7,0-1.3,0-2,0.1c-3.7,0.5-6.5,2.7-9.4,4.9c-0.3,0.2-0.7,0.7-0.6,1c0.3,2,0.7,4,1.2,5.9
			c0.3,1,1.4,1.1,2.2,1.6c1.9,1.2,2.2,1.1,2.9-1.1S1181.4,31.5,1182,29.3z M1235,36.6c4.2,1.7,7.3,3.9,9.4,7.4
			c0.4,0.6,0.6,1.7,1.7,1.3c1.1-0.3,1.8-1.3,1.9-2.4c0-2.7,0.2-5.3,0.5-8c0.2-0.9-0.3-1.4-1.3-1.3C1243.1,34.3,1239,35.3,1235,36.6z
			 M1360.7,34.7c-0.1-0.8-0.8-0.9-1.3-1.1c-3.8-1.1-7.9-0.6-11.4,1.3c-0.5,0.3-1.3,0.2-1.3,1s0.7,1.1,1.3,1.4
			c2.2,0.8,4.4,1.8,6.5,2.9c0.4,0.4,1,0.3,1.4-0.1c0,0,0.1-0.1,0.1-0.1c0.1-0.1,0.1-0.2,0.2-0.3c1-1.6,2.2-3,3.7-4.2
			C1360.2,35.3,1360.5,35,1360.7,34.7L1360.7,34.7z M930.9,39.2c-0.4,0.1-0.9,0.2-1.3,0.4c-2.2,1.1-3,3.3-3.8,5.5
			c-0.3,0.8,0.4,1.1,1.1,1.3c2.3,0.8,4.4,0.9,6.6-0.8c1.7-1.2,2.4-2.6,1.2-4.2C933.7,40.2,932.4,39.4,930.9,39.2z M1113.2,39.4
			c-0.7,1.8-1.2,3.1-1.7,4.5c-0.1,0.4-0.3,0.9,0.1,1.1s0.6-0.3,0.8-0.6c2.4-2.8,2.2-6.5,3.4-9.8c0.5-1.4-1.7-2-2.9-2.6
			s-1.6,0.4-2.1,1.2c-0.3,0.9-0.8,1.7-1.4,2.4c-0.9,0.8-2.1,1.8-0.8,3.2C1110.3,40.7,1111.1,40.8,1113.2,39.4z M1229.2,46.8
			c0.8-0.7,2.4,0.5,2.4-1.4c-0.1-2.1-0.3-4.1-0.4-6.2c0-0.8-0.4-1-1.2-1c-2.1,0.3-3.5,1.8-3,3.7c1.1,3.8,1.9,7.6,2.4,11.5
			C1231.7,50.6,1231.6,48.6,1229.2,46.8L1229.2,46.8z M1088.1,35c0.1-1-0.4-0.8-1-0.5c-3.3,1.8-5.2,4.7-6.8,7.9
			c-0.4,0.8-1,1.7-0.1,2.4s1.1-0.7,1.8-0.9c0.3-0.1,0.6-0.3,0.8-0.5C1085.6,41.3,1087.9,38.8,1088.1,35L1088.1,35z M1337,32.4
			c0,0.8,0,1.3,0.5,1.5c1.5,0.7,3,1.1,4.6,1.3c0.8,0.1,0.9-0.7,0.8-1.3c-0.8-2.9-1.9-5.7-3.5-8.3c-0.3-0.5-1-1-1.2,0.2
			C1337.7,28.1,1337.3,30.4,1337,32.4L1337,32.4z M1100.2,42.3c1.4,0.3,2-0.4,1.5-1.9s-0.9-3.1-1.3-4.6c-0.3-1-1.1-1.3-2-1.5
			c-0.4-0.1-0.8-0.2-1,0.3s-0.1,0.8,0.4,0.9s0.6,0.5,0.1,0.7c-1.9,0.8-1.9,2.4-1.6,4C1096.7,42.2,1098.4,42.2,1100.2,42.3z
			 M1235.7,49c0.5-0.6,0.7-0.9,1-1.2c0.8-0.8,1.9-1.6,2.2-2.5c0.4-1.5-1.9-1.1-2.3-2.4v-0.2c0.7-0.3,1.3,0.8,2.2,0.1
			c-1-2-2.3-3.7-4-5.2c-0.4-0.3-0.9-0.7-1.5-0.3s-0.1,0.9,0,1.3c1,2.8,1.6,5.8,1.8,8.8C1235.2,48,1235.4,48.5,1235.7,49L1235.7,49z
			 M1040.4,41c-0.7-0.2-1.4,0.2-1.7,0.8c-0.5,0.6-0.7,1.5-0.3,2.3c1.6,3,3.2,3.4,6.2,1.8l0.4-0.2c1.4-0.8,1.5-1.8,0.3-2.8
			C1043.8,41.9,1042.2,41.2,1040.4,41z M1025.4,51.8c0.1-1.2,0-2.4-0.5-3.5c-1.2-2.3-2.6-0.4-3.9,0c-1.5,0.4-0.6,1.2-0.2,1.9
			c0.5,0.9,1,1.9,1.5,2.8s0.2,2.9,1.3,2.8s1.2-2,1.7-3.2C1025.3,52.3,1025.3,52.1,1025.4,51.8L1025.4,51.8z M968.1,57.2
			c2-2.9,3-6.3,2.9-9.8c-0.1-0.6,0-1.3-1-0.9c-2,0.9-3.1,3-2.8,5.1C967.5,53.4,967.8,55.2,968.1,57.2L968.1,57.2z M1284.2,40.8
			c-1.4,1.4-2.6,2.9-3.8,4.5c-2,2.8-2.9,3.3,1,5.1c0.2,0.1,0.3,0.4,0.6,0.7C1283.3,47.8,1284.1,44.3,1284.2,40.8L1284.2,40.8z
			 M1311,53.4c2.7-0.9,3.4-2.6,3.2-5c-0.1-0.9,0-1.8-0.1-2.6s0.4-1.9-0.9-1.8c-1,0.1-2.1,0.4-2.1,1.7
			C1310.9,48.3,1310.9,50.8,1311,53.4z M1290.1,53.2c-0.2-0.7,0.4-1.8-0.4-2.1s-1.4,0.6-1.9,1.2c-2.5,2.5-2.5,3.1-0.5,6.2
			c0.6,1,1,0.8,1.5,0C1289.7,56.9,1290.1,55,1290.1,53.2z M1116.7,45.3c3.5-1.6,1.9-4.6,2-7.1c0.3,0.7,0.6,1.4,0.8,2.1
			c0.2,0.4,0,1.3,0.9,0.9c0.7-0.3,1.4-0.8,0.8-1.7s-1.4-1.9-2.2-2.9c-0.4-0.5-0.8-0.4-1,0.2C1117,39.6,1115.9,42.3,1116.7,45.3
			L1116.7,45.3z M1263.3,55.3c0.5-1.8,1-3.3,1.4-4.8c0.3-1.2-1.2-3.9-2-3.7c-1.1,0.2-2.7,3.7-1.9,4.5
			C1261.7,52.5,1262.2,53.8,1263.3,55.3z M1286.6,51.2c3.4-1.9,3.5-2,2.7-4.5s-1.7-5.1-2.5-7.6C1287.2,43.1,1287.1,47.2,1286.6,51.2
			z M1001,51.4l2-4.8c0.2-0.5,0.3-0.9-0.2-1.2c-1.1-0.7-2.4-1.6-3.5-1.2c-0.8,0.3,0.1,1.6,0,2.5c0,0.7,0.1,1.5,0.3,2.2
			C999.6,49.9,999.7,50.9,1001,51.4z M919.8,34.5c-3.9-1-7.6,2.1-9.3,4.1c-0.3,0.4-0.3,1,0.1,1.3c0.3,0.3,0.8,0.4,1.1,0.1l0.1-0.1
			C914,37.8,916.8,36.3,919.8,34.5L919.8,34.5z M978.2,41.8c1,2.3,0.9,4.8,3.5,5.6c0.7,0.2,1.3,1.4,2,0.1c0.6-0.8,0.5-1.9-0.2-2.5
			c0,0-0.1-0.1-0.1-0.1C981.9,43.5,980.2,42.4,978.2,41.8z M1160.7,43.8c0.6-2.9,1.4-5.7,2.3-8.5c0.3-1.1-0.2-1.6-1-2.2
			c-0.4-0.3-0.9-0.9-1.4-0.5c-0.5,0.4-0.3,1.4-0.3,2.1C1160.4,37.8,1160.5,40.8,1160.7,43.8z M1030.2,55.6c1.4-2.2,1.7-4.5,2.5-6.6
			c0.3-0.8,0.9-1.6-0.6-2c-1.3-0.3-1.8,0.2-2.2,1.4C1029.2,50.8,1029.7,53.1,1030.2,55.6L1030.2,55.6z M1046.5,34.9
			c0-0.7,0-1.5-0.2-2.2c-0.2-0.7-0.5-1-1.1-0.4c-1.1,1.3-2.2,2.7-3.3,4.1c-0.3,0.3-0.4,0.9,0.1,1c1.3,0.1,2.6,0.8,3.8,0.3
			S1046.3,35.8,1046.5,34.9z M1324.9,49.9c0.2-2.6,0.1-5.3-0.4-7.9c-0.2-0.7-0.5-1.1-1.2-1.1c-0.5,0-1.2-0.2-1.5,0.4
			c-0.2,0.6-0.1,1.2,0.3,1.7c0.3,0.4,0.8,0.6,0.8,1.3C1322.7,46.3,1323.8,47.9,1324.9,49.9L1324.9,49.9z M932.3,37
			c1.2,0.1,1.8-0.2,1-1.6c-0.3-0.7-0.5-1.4-0.6-2.1c-0.1-0.5-0.4-1.1-1-0.7c-1.1,0.8-3.2,1-3,2.5c0.1,1.3,1.9,1.6,3.3,1.8L932.3,37
			L932.3,37z M1164.7,35.4c-1,1.7-1.5,3.7-1.6,5.7c0,0.4-0.2,1,0.4,1.2c0.5,0.1,1-0.1,1.3-0.4C1166.6,40.6,1166.6,37.3,1164.7,35.4z
			 M1337.3,53.7c1.1-3.3,0.9-4.5-0.9-7c-0.3-0.5-0.7-1.2-1.4-1s-0.5,1-0.6,1.6c-0.1,0.7,0.2,1.4,0.6,1.9
			C1336,50.6,1336.7,52.1,1337.3,53.7z M968,43.1c0.3-0.6,1.2-0.1,1.3-0.8c-0.1-0.3-0.2-0.4-0.5-0.5c-1-0.3-2,0.2-2.4,1.1
			c-0.5,1.1-1.5,2.5-0.8,3.6s1.4-0.5,2.2-0.6c0.2-0.1,0.4-0.1,0.5-0.3c0.7-0.4,1.9-0.1,1.9-1.1s-1.3-0.6-2-1.1L968,43.1z
			 M1213.2,32.3c-0.5,2.6-1,5.2-1.5,8.3c1.6-0.9,3.7-1.1,3.1-3S1214.2,33.9,1213.2,32.3z M953.2,49.5c0.5-1.3,1-2.6,1.6-3.8
			c0.3-1,0.4-2,0.2-3c0-0.6-0.4-1-1-1c0,0-0.1,0-0.1,0c-0.8-0.1-0.8,0.5-0.9,1C952.8,45,952.8,47.3,953.2,49.5z M1275.9,56.8
			c1-1.6,2-3,2.8-4.4c0.5-0.7,0.3-1.6-0.3-2.1c0,0,0,0-0.1,0c-0.1-0.1-0.2-0.1-0.3-0.1c-0.8-0.4-1.2,0.4-1.5,1
			C1275.7,52.9,1274.6,54.6,1275.9,56.8z"/>
		<path d="M1368,20.9c-2.5-2.8-3.7-6.4-5.6-9.5c-2.3-3.8-5-7.3-7.3-11.1c4.7,4.2,8.5,9.3,12.9,13.8V20.9z"/>
	</g>
</g>
</svg>
