<?xml version="1.0" encoding="utf-8"?>
<!-- Generator: Adobe Illustrator 24.1.1, SVG Export Plug-In . SVG Version: 6.00 Build 0)  -->
<svg version="1.1" id="Layer_1" xmlns="http://www.w3.org/2000/svg" xmlns:xlink="http://www.w3.org/1999/xlink" x="0px" y="0px"
	 viewBox="0 0 641.1 641.1" style="enable-background:new 0 0 641.1 641.1;" xml:space="preserve">
<g id="Layer_2_1_">
	<g id="Layer_1-2">
		<path d="M0,610.3c6.8-2,13.6-4.4,20.5-6c7.6-1.8,15.5-2.5,23.1-4.5c36.3-9.8,67.8-31.3,103.6-42.5c8.3-2.6,16.7-5.2,25.2-7.3
			c12.1-2.9,16.2-10.8,10.4-21.8c-1-1.8-4-2.8-6.3-3.5c-7.1-2.3-14-4.8-15.5-13.3c-1.1-6.2-2.2-12.5-2.3-18.8c0-2.4,2.3-6,4.4-6.9
			c10.2-4.3,17.7-10.7,21-21.6c0.7-2.2,3.6-4.1,6-5.4c8-4.1,16.1-7.8,24.9-12c-1.1-6.4-2.4-13.2-4-21.8l12.2,9.3v-18.3
			c2.1,1.1,3.8,1.6,4.7,2.7c4.2,5.6,8.9,11,12.1,17.1c4.1,7.8,10,12.6,18.5,12.9c11.2,0.4,19.8,5.5,28.1,12.4
			c7.2,6,15.4,10.7,18.7,20.4c0.4,1.2,3.9,2,5.9,1.9c1.7-0.3,3.1-1.5,3.8-3.1c1.7-7,6.5-10.3,13-11.8c24.5-5.4,44.2-19.9,64.1-34.1
			c4.5-3.2,8-8.2,11.3-12.8c10.5-14.8,19.9-30.5,31.2-44.6c26-32.2,61.4-48.2,101-56.4c1.4-0.4,2.9-0.8,4.4-1
			c18.9-0.7,27.1-13.9,32.3-29.2c7.9-23.2,15.2-46.7,21.8-70.4c4.5-16,5.7-32.6,2.5-48.9c-3.2-16-10.3-29.9-25.5-38.1
			c-1.7-0.9-3.3-1.9-4.8-3.2c-5.5-4.8-13.9-7.2-13.1-17.2c1-13.2,5-24.8,16.6-32.3c2-1.3,7.3-0.7,9,1c12.6,12.8,24.7,26,36.7,39.2
			c1.6,1.8,1.9,4.7,2.9,7.1c0.6,1.3,1.2,3.7,1.9,3.7c6.8,0.2,4.7,5.7,6,9.3c1.9,5.4,5,10.6,6.4,16.1c2.2,8.2,3.7,16.6,5.1,24.9
			c1.4,8.4,3.5,16.9,3.2,25.3c-0.4,10.8-1.8,21.5-4.4,32c-5.9,23.7-12.7,47.2-19.1,70.9c-2.2,8.2-4.8,16.4-6.3,24.8
			c-0.7,3.9-0.3,7.9,1.3,11.6c7.6,16,9.7,33.1,10.2,50.5c0,1.5,0.2,3.4-0.6,4.4c-4,4.9-5.1,9.8-1.4,15.3c0.3,1,0,2.1-0.7,2.9
			c-6.7,3.9-6,11.3-8.3,17.3c-2,5.4-3.9,10.8-5.8,16.2c-0.4,1-1.2,2.1-1,3c2.2,10.2-6,17-8.2,25.7c-1.3,5.4-2.4,10.8-3.3,16.2
			c-1.9,10.9-3.4,21.9-5.6,32.8c-1.7,8-2.9,15.9-0.5,24c0.8,2.8,0.6,5.8-0.4,8.6c-3,7.5-9.5,13.1-10.8,22.1c-0.5,3.7-7,6.4-10.4,9.8
			c-2.9,3-5.2,6.6-8,9.7c-1.5,1.5-3.1,2.7-4.9,3.8c-14.8,10.5-29.6,20.9-44.5,31.3c-0.4,0.4-0.8,1-1,1.5h-34.7
			c-5.6-2.4-9.1-6.3-8.2-12.9c0.5-3.7,7.8-9.4,12.8-10c6.2-0.8,12.2-1.9,16.8-6.8c4.2-4.5,9.5-8.2,13-13.2c4.6-6.5,8.4-13.6,11.4-21
			c2.4-6-4.6-13.2-11.1-12c-7.1,1.3-14.2,2.8-21.2,4.7c-2.1,0.8-3.9,2.3-4.9,4.4c-4.2,8.2-7.6,10.1-16.3,7.5l-14.6,14.9
			c-3.2-6.2-6.7-4.6-11-1.3c-2.4,1.9-5.7,2.9-8.8,3.5c-14.7,3.2-29.4,6.3-44.2,8.9c-12,2.1-23.3,7.5-36.1,6.4
			c-8.2-0.7-16.7,2.4-25.1,2.5c-17,0.1-34.1-0.3-51.1-1.2c-23.3-1.3-46,1.8-68.9,5.7c-34.3,5.9-68.5,12.7-103.5,14.3
			c-18.1,0.8-36,3.7-54,5.7h-7.7c-7.2-1.3-15.4-0.6-19.3-8.9c-0.1-0.1-0.4-0.1-0.6-0.3c-2.9-2.4-5.8-4.9-8.6-7.3
			c-4.7-0.8-9.9-1-11.3-7.9V610.3z"/>
	</g>
</g>
</svg>
