<?xml version="1.0" encoding="utf-8"?>
<!-- Generator: Adobe Illustrator 24.1.1, SVG Export Plug-In . SVG Version: 6.00 Build 0)  -->
<svg version="1.1" id="Layer_1" xmlns="http://www.w3.org/2000/svg" xmlns:xlink="http://www.w3.org/1999/xlink" x="0px" y="0px"
	 viewBox="0 0 185.3 185.2" style="enable-background:new 0 0 185.3 185.2;" xml:space="preserve">
<style type="text/css">
	.st0{fill:#212121;}
	.st1{fill:#606060;}
	.st2{fill:#C3C3C3;}
	.st3{fill:#424242;}
	.st4{fill:#323232;}
	.st5{fill:#494949;}
	.st6{fill:#484848;}
	.st7{fill:#6D6D6D;}
	.st8{fill:#FEFEFE;}
</style>
<g id="Layer_2_1_">
	<g id="Layer_1-2">
		<g id="Layer_2-2">
			<g id="Layer_1-2-2">
				<path d="M133.5,185.2c-6,0-11.7-2.5-15.8-6.9c-4-4.3-7.7-8.9-11.1-13.8c-3.3-4.6-6.8-9-9.9-13.7c-1.7-2.5-3.7-1.1-5.6-0.9
					c-1.9,0.2-1.1,1.9-1.2,2.9c-1.4,13.3-10.4,20.5-22.3,18.3c-3.5-0.6-6.9-1.5-10.3-2.7c-6.4-2.2-12.2-5.7-17.2-10.3
					c-7-6.2-7.7-10.1-3.5-18.4c1.1-2.1,1.4-3.4-0.7-5.2c-2.7-2.2-3.6-5.7-3.8-9.1c-0.9-17.8-0.6-35.6,2.1-53.3
					c1.4-9.3,5.8-13.6,13.9-14.2c3.3-0.3,6.6-0.2,9.8,0.3c0.9,0.1,2.1,1.1,2.6-0.3c0.4-1.2-0.6-1.8-1.6-2.2c-1-0.5-1.7-1.4-2.1-2.4
					c-4.9-9-4.5-18.6-3-28.2c0.9-5.9,2.3-11.8,3.5-17.7c0.9-4.4,3.7-6,8-4.4c5,1.9,9.8,4.3,14.4,7c1.1,0.7,2.4,0.9,3.6,0.5
					c9.6-2.5,19.3-2.5,29-1.2c1.3,0.2,2.6-0.3,3.4-1.3c2.3-2.8,5.1-5.2,8.2-7.1c2.9-1.6,4.3-1.2,6.2,1.5
					c7.3,10.3,9.8,22.1,11.5,34.3c0.2,0.8,0.1,1.6-0.1,2.4c-1.5,4.3,1,7.1,3.5,10c5.9,6.6,7.9,14.3,7,23c-0.7,7.2-3.3,13.2-9.5,17.2
					c-0.5,0.3-0.9,0.5-0.8,1.2c1.6,6.8-0.3,13.3-1.5,19.9c-1.3,6-3.2,11.9-5.7,17.6c-1.2,2.9-0.7,5,1.4,7.4
					c4.7,5.5,9.1,11.1,13.5,16.8c5.3,6.8,5.6,14.2,1.7,21.7C147.8,181.5,141.7,185.1,133.5,185.2z"/>
				<path class="st0" d="M60.4,34c0.5-6.5,2.1-13.8,3.6-21.1c0.4-1.7,1.3-2,2.8-1.3c3.1,1.4,6.2,3,9.2,4.7c2.8,1.9,6.3,2.5,9.6,1.5
					c9-2.4,18.1-2.3,27.2-0.8c3.4,0.6,6.1,0.5,7.9-2.8c0.8-1.2,1.7-2.3,2.8-3.3c1.9-1.9,2.8-1.8,4,0.7c2.9,6.1,4.9,12.5,6,19.2
					c0.9,5.1,0.8,5-4.3,4c-5.1-1-10.5-0.5-15.8-0.2c-12.9,0.8-24.9,5-36.8,9.3c-2.9,1.1-5.7,2.4-8.4,3.9c-3.4,1.8-5.5,1.1-6.6-2.7
					C60.7,41.5,60.3,37.7,60.4,34z"/>
				<path class="st1" d="M144.5,62.3c1,5.8,1.3,11.5-1.6,16.9c-2.1,4-6,5.3-10.1,6c-6.1,1-12.3,1.1-18.4,1.6
					c-4.7,0.5-9.4,0.6-14.1,0.5c-9-0.4-12.5-3.3-13.9-12.2c-0.9-5.3,0.2-10.8,3.1-15.4c1.4-2.5,3.7-4.3,6.5-5
					c1.1,0.8,0.6,1.7,0.3,2.7c-1.5,5.4-0.4,8.5,4.1,11.8c3.4,2.5,7.4,3.9,11.6,4.1c7.6,0.4,15.1,0.4,22.3-2.3c4-1.5,7.4-3.5,9-7.7
					C143.5,62.9,143.9,62.5,144.5,62.3z"/>
				<path class="st2" d="M144.5,62.3c0.4,5.2-3.6,7.5-7.3,9.1c-9.9,4.4-20.4,4.5-30.9,2.4c-3-0.8-5.7-2.3-8-4.4
					c-4.7-4.1-5.3-7.7-2.3-14.6c4.2-2.5,8.9-3.8,13.8-3.7c8.4,0,16.7,0.5,25,1.6C140.8,53.4,142.7,57.6,144.5,62.3z"/>
				<path class="st3" d="M104.2,43.3c7.7-1,15.3-2.3,23.1-1.1c2,0.3,4.1,0.7,5.8,2.3c-9.3-0.3-18.5-1-27.8-0.6
					C104.7,44,104.1,44.3,104.2,43.3z"/>
				<path class="st4" d="M104.2,43.3l1.1,0.5l-9.4,2.6l-1.1-0.5C97.8,44.7,100.9,43.9,104.2,43.3z"/>
				<path class="st5" d="M63.9,24.2c0.4-2.7,0.9-5.4,1.3-8.1c0.3-1.9,1.3-2.5,3-1.4c2.1,1.3,4.1,2.6,6.2,4c1.3,0.8,1.7,1.6-0.1,2.4
					c-3,1.4-5.9,2.8-8.8,4.3C64.2,26,63.7,25.6,63.9,24.2z"/>
				<path class="st6" d="M129.4,24.4c-2.4-1.9-5-3.5-7.7-5c-1.3-0.6-1-1.7-0.2-2.5c1.6-1.5,1.7-4.5,4.5-4.8c0.3,0,0.8,0.7,1,1.2
					c1,3.5,2,7.1,3,10.7L129.4,24.4z"/>
				<path class="st7" d="M119.4,27.3c-0.1,1.6-1.4,2.6-3.5,2.8c-1.9,0.1-3.5-1.4-3.6-3.3v-0.3c0-1.8,1.4-3.3,3.2-3.4h0.3
					C118.1,23,119.5,24.5,119.4,27.3z"/>
				<path class="st7" d="M80.1,26.7c2.3,0.1,3.7,1.2,3.7,3.3c-0.1,1.9-1.8,3.4-3.7,3.2c-1.7-0.1-3.1-1.4-3.2-3.1
					C76.9,28,78.2,27,80.1,26.7z"/>
				<path class="st8" d="M125.8,65.6c-4.2-0.4-8.6-0.5-13-1.3c-1.4-0.2-2.8-0.7-4.1-1.4c-1.8-1.1-3.1-2.5-2.8-4.8s2-3.1,3.9-3.6
					c2.1-0.6,4.3-0.7,6.5-0.5c5.1,0.6,10.3,0,15.5,0.7c2.6,0.4,5,1,6.2,3.7c1.1,2.5,0.5,4.5-2.1,5.6
					C132.7,65.2,129.4,65.4,125.8,65.6z"/>
			</g>
		</g>
	</g>
</g>
</svg>
